<svg xmlns="http://www.w3.org/2000/svg" xml:space="preserve" id="svg1" version="1.1" viewBox="0 0 146.94 176.61">
  <g id="g28725" fill-opacity="1" display="inline" transform="translate(2530 -301.8)">
    <g id="ram_display_shadow" fill="#000" stroke-dasharray="none" stroke-linecap="round" stroke-linejoin="round" stroke-width="8" display="inline" paint-order="stroke fill markers" transform="translate(-276.2 -8.14)">
      <path id="path29793" stroke-width="10.22" d="M-2335.8 428.7c-22.93-13.23-60.1-13.23-83 0-22.93 13.24-22.93 34.7 0 47.92 22.9 13.24 60.07 13.24 83 0 22.9-13.23 22.9-34.68 0-47.92z" display="inline"/>
      <path id="path40304" stroke="#000" stroke-dasharray="none" stroke-opacity="1" stroke-width="8" d="M-2352.9 313.94a23.68 23.68 0 0 0-17.39 7.19 6.86 6.86 0 0 0-6.82-6.32 6.86 6.86 0 0 0-3.6 1.03 6.86 6.86 0 0 0-4.63-1.81h0a6.86 6.86 0 0 0-5.79 3.19 6.86 6.86 0 0 0-3.6-1.04 6.86 6.86 0 0 0-6.64 5.14 6.86 6.86 0 0 0-5.79 4.81 22.92 22.92 0 0 0-6.03-1.49.87.87 0 0 0-.24-.08l-1.32-.04a19.2 19.2 0 0 0-.78-.02h0-.23a.87.87 0 0 0-.23.05c-.52.02-1.04.05-1.56.1-13.05 1.37-23.27 13.19-21.83 26.43.7 6.37 4.11 12 8.98 15.66a14.96 14.43 0 0 0-1.71 6.63 14.96 14.43 0 0 0 .56 3.88 14.96 14.43 0 0 0-7 12.22 14.96 14.43 0 0 0 4.2 9.98 14.96 14.43 0 0 0-2.6 8.13 14.96 14.43 0 0 0 4.73 10.47 16.63 16.04 0 0 0-1.22 6.02 16.63 16.04 0 0 0 14.5 15.9 16.63 16.04 0 0 0 15.87 15.78l7.71 9.47a7.66 7.66 0 0 0 10.78 1.1 7.66 7.66 0 0 0 1.9-9.6 16.63 16.04 0 0 0 2.89.3 16.63 16.04 0 0 0 10.9-3.93 16.63 16.04 0 0 0 9.22 2.72 16.63 16.04 0 0 0 10.79-3.91l9.06 5.15a7.66 7.66 0 0 0 10.44-2.87 7.66 7.66 0 0 0-2.87-10.45l-5.77-3.28a16.63 16.04 0 0 0 5.26-6.5l14.09-8.14h0l2.69-1.55 13.45-23.3-2.69-1.56-19.96 11.53a16.63 16.04 0 0 0-2.69-5.27 16.63 16.04 0 0 0 2.54-3.4l20.3-9.37a7.68 7.68 0 0 0 3.76-10.2 7.68 7.68 0 0 0-10.19-3.75l-14.74 6.8a16.63 16.04 0 0 0-1.35-1.67 48.37 36.42 37.62 0 0-5.53-29.17 12.46 12.46 0 0 0 1.23-5.4 12.46 12.46 0 0 0-1.54-6.01 15.52 15.52 0 0 0 2.88-4.98c1.06-3.12.82-6.14.04-8.73a22.05 22.05 0 0 0-3.57-6.81.87.87 0 0 0-.1-.23c-.29-.34-.58-.67-.89-.99l-.52-.58h0l-.16-.17a.87.87 0 0 0-.19-.13 24.72 24.72 0 0 0-17.01-6.93zm-62.58 12.33a24.13 24.13 0 0 0 0 0zm2.62.18a23 23 0 0 1 0 0zm-7.99.58a22.57 22.57 0 0 0 0 0zm-4 1.5a23.08 23.08 0 0 0 0 0zm-5.21 3.46a23.45 23.45 0 0 0 0 0zm15.2 2.37a14.52 14.52 0 0 0 0 0zm3.99.56a15.61 15.61 0 0 1 0 0zm-10.78 1.04-.06.03.06-.03zm-4.96 1.44h0a16.7 16.7 0 0 0 0 0zm-2 2.38a16.14 16.14 0 0 0 0 0zm-1.02 1.66a15.8 15.8 0 0 0 0 0zm14.4 1a7.26 7.26 0 0 0 0 0zm-5.74.67h0a8.04 8.04 0 0 0 0 0zm-.54.58a8.02 8.02 0 0 0-1.64 3.08 7 7 0 0 0 .3 4.46 6.52 6.52 0 0 0-.46-1.68 6.98 6.98 0 0 1 .55-3.88c.31-.72.74-1.38 1.25-1.98zm-9.89 4.14a14.9 14.9 0 0 0 0 0zm14.76.82h0c-.13.13-.24.3-.31.48a1.77 1.77 0 0 0-.14.76.87.87 0 0 0 .08.3.87.87 0 0 1-.08-.3c0-.13 0-.26.03-.38a1.49 1.49 0 0 1 .42-.86zm1.22 1.36.38.17a48.37 36.42 37.62 0 0 0 0l-.38-.17zm-1.54.26a.87.87 0 0 0 .13.18.87.87 0 0 1-.13-.18zm.2.25a.87.87 0 0 0 .2.11.87.87 0 0 1-.2-.11zm.28.15a.87.87 0 0 0 .31.05.87.87 0 0 1-.3-.05zm-14.78.02a14.03 14.03 0 0 0 0 0zm.19 1.05a14.35 14.35 0 0 0 3.24 6.43 14.67 14.67 0 0 0-3.24-6.43zm11.2 2.7a5.68 5.68 0 0 0 0 0zm.54.24a5.47 5.47 0 0 0 0 0zm.86.25a5.22 5.22 0 0 0 0 0zm-7.9 4.7a14.54 14.54 0 0 0 0 0zm1.06.84c.22.16.44.3.67.45a14.96 14.43 0 0 0 0 0l-.67-.45z" color="#000" display="inline"/>
      <path id="path43093" stroke-width="10.22" d="M-2214.57 428.7c22.92-13.23 60.08-13.23 83 0 22.92 13.24 22.92 34.7 0 47.92-22.92 13.24-60.08 13.24-83 0-22.91-13.23-22.91-34.68 0-47.92z" display="inline"/>
      <path id="path43095" stroke="#000" stroke-dasharray="none" stroke-opacity="1" stroke-width="8" d="M-2197.47 313.94a23.68 23.68 0 0 1 17.38 7.19 6.86 6.86 0 0 1 6.82-6.32 6.86 6.86 0 0 1 3.6 1.03 6.86 6.86 0 0 1 4.63-1.81h0a6.86 6.86 0 0 1 5.79 3.19 6.86 6.86 0 0 1 3.61-1.04 6.86 6.86 0 0 1 6.64 5.14 6.86 6.86 0 0 1 5.78 4.81c2.23-.9 4.42-1.31 6.03-1.49a.87.87 0 0 1 .24-.08l1.32-.04.78-.02v0h.23a.87.87 0 0 1 .23.05c.52.02 1.04.05 1.56.1 13.05 1.37 23.27 13.19 21.83 26.43a22.8 22.8 0 0 1-8.98 15.66 14.96 14.43 0 0 1 1.71 6.63 14.96 14.43 0 0 1-.56 3.88 14.96 14.43 0 0 1 7 12.22 14.96 14.43 0 0 1-4.2 9.98 14.96 14.43 0 0 1 2.6 8.13 14.96 14.43 0 0 1-4.73 10.47 16.63 16.04 0 0 1 1.22 6.02 16.63 16.04 0 0 1-14.5 15.9 16.63 16.04 0 0 1-15.87 15.78l-7.71 9.47a7.66 7.66 0 0 1-10.78 1.1 7.66 7.66 0 0 1-1.9-9.6 16.63 16.04 0 0 1-2.89.3 16.63 16.04 0 0 1-10.89-3.93 16.63 16.04 0 0 1-9.22 2.72 16.63 16.04 0 0 1-10.8-3.91l-9.05 5.15a7.66 7.66 0 0 1-10.45-2.87 7.66 7.66 0 0 1 2.87-10.45l5.77-3.28a16.63 16.04 0 0 1-5.26-6.5l-14.09-8.14v0l-2.69-1.55-13.45-23.3 2.69-1.56 19.96 11.53a16.63 16.04 0 0 1 2.69-5.27 16.63 16.04 0 0 1-2.54-3.4l-20.3-9.37a7.68 7.68 0 0 1-3.76-10.2 7.68 7.68 0 0 1 10.19-3.75l14.74 6.8a16.63 16.04 0 0 1 1.35-1.67 36.42 48.37 52.38 0 1 5.53-29.17 12.46 12.46 0 0 1-1.23-5.4 12.46 12.46 0 0 1 1.54-6.01 15.52 15.52 0 0 1-2.88-4.98 14.15 14.15 0 0 1-.04-8.73 22.05 22.05 0 0 1 3.57-6.81.87.87 0 0 1 .1-.23c.29-.34.59-.67.89-.99l.52-.58h0l.16-.17a.87.87 0 0 1 .19-.13 24.72 24.72 0 0 1 17.01-6.93zm62.57 12.33a24.13 24.13 0 0 1 0 0zm-2.62.18a23 23 0 0 0 0 0zm7.99.58a22.57 22.57 0 0 1 0 0zm4 1.5a23.08 23.08 0 0 1 0 0zm5.22 3.46a23.45 23.45 0 0 1 0 0zm-15.2 2.37a14.52 14.52 0 0 1 0 0zm-4 .56a15.61 15.61 0 0 0 0 0zm10.78 1.04.07.03c-.03 0-.05-.02-.07-.03zm4.96 1.44h0a16.7 16.7 0 0 1 0 0zm2.01 2.38a16.14 16.14 0 0 1 0 0zm1.01 1.66a15.8 15.8 0 0 1 0 0zm-14.4 1a7.26 7.26 0 0 1 0 0zm5.74.67h0a8.04 8.04 0 0 1 0 0zm.54.58a8.02 8.02 0 0 1 1.64 3.08 7 7 0 0 1-.3 4.46 6.52 6.52 0 0 1 .46-1.68 6.98 6.98 0 0 0-.55-3.88 8.01 8.01 0 0 0-1.25-1.98zm9.89 4.14a14.9 14.9 0 0 1 0 0zm-14.76.82h0c.13.13.24.3.31.48a1.77 1.77 0 0 1 .14.76.87.87 0 0 1-.08.3.87.87 0 0 0 .08-.3c0-.13 0-.26-.03-.38a1.82 1.82 0 0 0-.1-.38 1.49 1.49 0 0 0-.32-.48zm-1.22 1.36a2.6 2.6 0 0 0-.37.17 36.42 48.37 52.38 0 1 0 0l.37-.17zm1.55.26a.87.87 0 0 1-.14.18.87.87 0 0 0 .14-.18zm-.21.25a.87.87 0 0 1-.2.11.87.87 0 0 0 .2-.11zm-.28.15a.87.87 0 0 1-.31.05.87.87 0 0 0 .31-.05zm14.79.02a14.03 14.03 0 0 1 0 0zm-.2 1.05a14.35 14.35 0 0 1-3.24 6.43 14.67 14.67 0 0 1 3.25-6.43zm-11.19 2.7a5.68 5.68 0 0 1 0 0zm-.55.24a5.47 5.47 0 0 1 0 0zm-.86.25a5.22 5.22 0 0 1 0 0zm7.91 4.7a14.54 14.54 0 0 1 0 0zm-1.07.84c-.22.16-.44.3-.67.45a14.96 14.43 0 0 1 0 0l.67-.45z" color="#000" display="inline"/>
    </g>
    <g id="g43101" fill="#ba907e" stroke-linecap="round" color="#000" display="inline" paint-order="stroke fill markers" transform="rotate(114.27 -1087.63 -655.53) scale(1.55768)">
      <path id="path43097" d="M284.23 119.5a4.93 4.93 0 0 0-4.97 4.9l-.17 19.36a4.93 4.93 0 0 0 4.88 4.97 4.93 4.93 0 0 0 4.98-4.88l.17-19.37a4.93 4.93 0 0 0-4.9-4.97z" style="-inkscape-stroke:none"/>
      <path id="path43099" d="m284.02 143.8.17-19.36" style="-inkscape-stroke:none"/>
    </g>
    <g id="g43107" fill="#ba907e" stroke-linecap="round" color="#000" display="inline" paint-order="stroke fill markers" transform="rotate(59.5 -1183.89 -2213.97) scale(1.55768)">
      <path id="path43103" d="M284.23 119.5a4.93 4.93 0 0 0-4.97 4.9l-.17 19.36a4.93 4.93 0 0 0 4.88 4.97 4.93 4.93 0 0 0 4.98-4.88l.17-19.37a4.93 4.93 0 0 0-4.9-4.97z" style="-inkscape-stroke:none"/>
      <path id="path43105" d="m284.02 143.8.17-19.36" style="-inkscape-stroke:none"/>
    </g>
    <path id="path43109" fill="#ba907e" stroke-linecap="round" stroke-width="1.56" d="M-2415.85 426.1a7.66 7.66 0 0 0-10.78 1.1l-16.46 20.2a7.66 7.66 0 0 0 1.1 10.77 7.66 7.66 0 0 0 10.77-1.1l16.47-20.2a7.66 7.66 0 0 0-1.1-10.77z" color="#000" display="inline" paint-order="stroke fill markers" style="-inkscape-stroke:none"/>
    <path id="path43111" fill="#ba907e" stroke-linecap="round" stroke-width="1.56" d="M-2461.22 425.58a7.66 7.66 0 0 0-10.44-2.87l-22.66 12.88a7.66 7.66 0 0 0-2.87 10.44 7.66 7.66 0 0 0 10.44 2.88l22.66-12.88a7.66 7.66 0 0 0 2.87-10.45z" color="#000" display="inline" paint-order="stroke fill markers" style="-inkscape-stroke:none"/>
    <path id="path43113" fill="#fffcf7" stroke-width=".41" d="M-2447.24 334.3a14.96 14.43 0 0 0-13.24 7.79 14.96 14.43 0 0 0-4.06-.55 14.96 14.43 0 0 0-13.32 7.94 16.63 16.04 0 0 0-3.12-.3 16.63 16.04 0 0 0-16.63 16.05 16.63 16.04 0 0 0 2.13 7.77 16.63 16.04 0 0 0-7.76 13.55 16.63 16.04 0 0 0 4.54 10.97 16.63 16.04 0 0 0-3.33 9.56 16.63 16.04 0 0 0 6.87 12.94 16.63 16.04 0 0 0 12.05 14.95 16.63 16.04 0 0 0 16.21 12.7 16.63 16.04 0 0 0 9.23-2.73 16.63 16.04 0 0 0 10.9 3.93 16.63 16.04 0 0 0 11.92-4.92 16.63 16.04 0 0 0 10.6 3.71 16.63 16.04 0 0 0 16.62-15.84 16.63 16.04 0 0 0 14.5-15.9 16.63 16.04 0 0 0-1.22-6.01 14.96 14.43 0 0 0 4.72-10.48 14.96 14.43 0 0 0-2.6-8.12 14.96 14.43 0 0 0 4.21-9.99 14.96 14.43 0 0 0-7-12.21 14.96 14.43 0 0 0 .56-3.88 14.96 14.43 0 0 0-14.96-14.43 14.96 14.43 0 0 0-1.72.12 14.96 14.43 0 0 0-14.77-12.2 14.96 14.43 0 0 0-8.5 2.6 14.96 14.43 0 0 0-12.83-7.02z" display="inline"/>
    <g id="g43119" stroke-dasharray="none" stroke-linecap="round" stroke-opacity="1" display="inline" paint-order="stroke fill markers" transform="translate(-4306.1 257.71)">
      <path id="path43115" fill="#e1c078" stroke="none" stroke-width="15.42" d="M1815.87 57.04a21.14 21.14 0 0 0-4.2 7.39c-.7 2.33-.9 4.94.02 7.66.74 2.19 2.22 4.46 4.85 6.72-1.95-6.71-.1-14.33 5.65-18.99 6.76-5.47 17.18-4.87 22.7 2.12 4.72 5.97 4.15 15.1-2.05 19.85-5.16 3.96-13 3.41-16.98-2.01-3.2-4.35-2.68-10.92 1.97-14.11 3.54-2.44 8.85-1.95 11.25 1.95a6.52 6.52 0 0 1 .83 4.58 5.22 5.22 0 0 1-2.81 3.8 4.5 4.5 0 0 1-3.18.26 3.21 3.21 0 0 1-2.33-2.42 2.4 2.4 0 0 1 .53-1.99c.22-.3.54-.6 1.04-.69.5-.1 1.05.15 1.4.51a.87.87 0 0 1-.04 1.24.87.87 0 0 1-1.03.05c-.1.2-.17.6-.19.54.12.61.5.91 1.1 1.08.61.18 1.41.1 1.93-.15a3.4 3.4 0 0 0 1.87-2.55 4.85 4.85 0 0 0-.61-3.35c-1.82-2.95-5.99-3.33-8.77-1.42-3.77 2.59-4.2 8.03-1.55 11.64 3.36 4.58 10.1 5.04 14.5 1.65 5.4-4.13 5.9-12.15 1.76-17.37-4.9-6.2-14.21-6.73-20.25-1.85-7 5.66-7.57 16.28-1.93 23.12 6.43 7.8 18.34 8.4 25.99 2.01 8.6-7.19 9.24-20.4 2.1-28.85-7.96-9.4-22.48-10.08-31.73-2.18-.65.55-1.26 1.15-1.84 1.76z"/>
      <path id="path43117" fill="#58441e" fill-rule="evenodd" stroke="#58441e" stroke-width="2" d="m1815.08 55.31-.53.58c-.3.32-.6.65-.88.99a.87.87 0 0 0-.1.23 22.05 22.05 0 0 0-3.57 6.81c-.78 2.6-1.02 5.61.03 8.73 1.06 3.12 3.41 6.3 7.65 9.24a.87.87 0 0 0 .07.03 18.1 18.1 0 0 0 2.26 3.49c7.07 8.58 20.08 9.24 28.45 2.24 9.37-7.83 10.07-22.14 2.3-31.32-8.6-10.17-24.2-10.9-34.18-2.37-.4.33-.78.69-1.16 1.05a.87.87 0 0 0-.18.14l-.16.16zm.79 1.73a23.3 23.3 0 0 1 1.84-1.76c9.25-7.9 23.77-7.22 31.72 2.18 7.15 8.45 6.5 21.66-2.1 28.85-7.64 6.4-19.55 5.79-25.98-2.01-5.64-6.84-5.06-17.46 1.93-23.12 6.04-4.88 15.36-4.35 20.25 1.85 4.14 5.22 3.63 13.24-1.75 17.37-4.42 3.4-11.15 2.93-14.51-1.65-2.65-3.6-2.22-9.05 1.55-11.64 2.78-1.91 6.95-1.53 8.77 1.42.6.98.82 2.24.61 3.35a3.4 3.4 0 0 1-1.87 2.55c-.52.25-1.32.33-1.93.15-.6-.17-.98-.47-1.1-1.08.02.07.1-.34.2-.54a.87.87 0 0 0 1.02-.05.87.87 0 0 0 .03-1.24 1.6 1.6 0 0 0-1.4-.5c-.5.08-.81.39-1.03.68a2.39 2.39 0 0 0-.53 1.99 3.21 3.21 0 0 0 2.33 2.42c1.07.3 2.21.2 3.17-.26a5.22 5.22 0 0 0 2.82-3.8c.3-1.55 0-3.21-.83-4.58-2.4-3.9-7.7-4.39-11.25-1.95-4.65 3.2-5.16 9.76-1.97 14.1 3.98 5.43 11.82 5.98 16.98 2.02 6.2-4.76 6.77-13.88 2.06-19.85-5.53-6.99-15.95-7.6-22.72-2.12-5.75 4.66-7.6 12.28-5.64 19-2.63-2.27-4.11-4.54-4.85-6.73a12.36 12.36 0 0 1-.02-7.66 21.14 21.14 0 0 1 4.2-7.39z" color="#000"/>
    </g>
    <ellipse id="ellipse43121" cx="-2163.33" cy="-1215.48" fill="#ffc4b9" stroke-width=".41" display="inline" rx="48.37" ry="36.42" transform="rotate(-37.62)"/>
    <circle id="circle43123" cx="-2482.26" cy="341.35" r="12.46" fill="#fff" stroke-width=".4" display="inline"/>
    <circle id="circle43125" cx="-2482.53" cy="340.53" r="11.09" fill="#000" stroke-width=".36" display="inline"/>
    <circle id="circle43127" cx="-2440.3" cy="346.97" r="12.46" fill="#fff" stroke-width=".4" display="inline"/>
    <circle id="circle43129" cx="-2439.95" cy="346.35" r="11.29" fill="#000" stroke-width=".37" display="inline"/>
    <path id="path43131" fill="#fffcf7" stroke="none" stroke-dasharray="none" stroke-linecap="round" stroke-opacity="1" stroke-width="13.64" d="M-2441.23 305.88a6.86 6.86 0 0 0-4.63 1.81 6.86 6.86 0 0 0-3.6-1.02 6.86 6.86 0 0 0-6.86 6.85 6.86 6.86 0 0 0 .04.47 6.86 6.86 0 0 0-4.94 6.58 6.86 6.86 0 0 0 6.86 6.86 6.86 6.86 0 0 0 1.67-.22 6.86 6.86 0 0 0 5.77 3.16 6.86 6.86 0 0 0 1.05-.09 6.86 6.86 0 0 0 5.81 3.22 6.86 6.86 0 0 0 2.42-.46 6.86 6.86 0 0 0 4.44 1.64 6.86 6.86 0 0 0 3.87-1.21 6.86 6.86 0 0 0 3.57 1.01 6.86 6.86 0 0 0 6.86-6.85 6.86 6.86 0 0 0-1.27-3.97 6.86 6.86 0 0 0 1.07-3.67 6.86 6.86 0 0 0-6.1-6.82 6.86 6.86 0 0 0-6.63-5.13 6.86 6.86 0 0 0-3.61 1.03 6.86 6.86 0 0 0-5.8-3.19z" display="inline" paint-order="stroke fill markers"/>
    <g id="g43137" stroke-dasharray="none" stroke-linecap="round" stroke-opacity="1" display="inline" transform="translate(-4303.33 258.6)">
      <path id="path43133" fill="#e1c078" stroke="none" stroke-width="15.42" d="M1891.58 59.53c-1.58.07-5.03.42-8.24 2.04a12.36 12.36 0 0 0-5.55 5.3c-1.07 2.03-1.7 4.68-1.53 8.14 3.53-6.04 10.32-9.95 17.66-8.99 8.63 1.14 15.36 9.1 14.1 17.93-1.07 7.53-8.08 13.4-15.8 12.18-6.42-1.02-11.43-7.08-10.24-13.7.96-5.3 6.07-9.46 11.59-8.28 4.2.89 7.5 5.07 6.33 9.49a6.52 6.52 0 0 1-2.75 3.76 5.22 5.22 0 0 1-4.69.58 4.5 4.5 0 0 1-2.38-2.12c-.5-.98-.6-2.3.16-3.36.45-.65 1.07-.9 1.8-.99.37-.04.8-.02 1.21.28.41.3.62.86.6 1.36a.87.87 0 0 1-.92.83.87.87 0 0 1-.75-.7c-.21.06-.56.28-.52.23-.36.5-.32.98-.03 1.54.3.56.9 1.09 1.44 1.3 1.11.4 2.2.2 3.14-.41a4.85 4.85 0 0 0 2-2.75c.9-3.35-1.7-6.64-5-7.34-4.48-.95-8.72 2.5-9.5 6.9-1.01 5.59 3.28 10.79 8.78 11.65 6.7 1.06 12.87-4.1 13.8-10.7 1.13-7.8-4.9-14.93-12.6-15.94-8.92-1.17-17.01 5.72-18.1 14.52-1.22 10.03 6.55 19.09 16.45 20.23 11.13 1.28 21.16-7.35 22.36-18.36 1.34-12.24-8.17-23.23-20.27-24.5-.85-.09-1.7-.12-2.55-.12z" paint-order="stroke fill markers"/>
      <path id="path43135" fill="#58441e" fill-rule="evenodd" stroke="#58441e" stroke-linejoin="round" stroke-width="2" d="m1892.3 57.76-.79.02c-.44 0-.88.02-1.32.04a.87.87 0 0 0-.24.08c-1.95.22-4.72.76-7.4 2.11a14.15 14.15 0 0 0-6.3 6.04c-1.53 2.91-2.22 6.8-1.44 11.9a.87.87 0 0 0 .03.08c-.47 1.3-.8 2.64-.97 4.04-1.35 11.03 7.13 20.92 17.97 22.17 12.13 1.4 22.99-7.95 24.3-19.9 1.44-13.24-8.78-25.06-21.83-26.42-.52-.06-1.04-.09-1.56-.11a.87.87 0 0 0-.23-.04h-.23zm-.72 1.77c.85 0 1.7.03 2.55.12 12.1 1.27 21.6 12.26 20.27 24.5-1.2 11-11.23 19.64-22.36 18.36-9.9-1.14-17.67-10.2-16.44-20.23 1.08-8.8 9.17-15.7 18.09-14.52 7.7 1 13.72 8.13 12.6 15.95-.93 6.6-7.1 11.75-13.8 10.7-5.5-.87-9.8-6.07-8.79-11.67.8-4.4 5.03-7.84 9.5-6.89 3.3.7 5.9 3.99 5.01 7.34a4.85 4.85 0 0 1-2 2.75 3.4 3.4 0 0 1-3.14.4 2.97 2.97 0 0 1-1.44-1.3c-.29-.55-.33-1.03.03-1.53-.04.05.3-.17.52-.24a.87.87 0 0 0 .75.7.87.87 0 0 0 .92-.82c.02-.5-.19-1.07-.6-1.36-.4-.3-.84-.32-1.21-.28-.73.09-1.35.34-1.8.99a3.21 3.21 0 0 0-.16 3.36 4.5 4.5 0 0 0 2.38 2.12c1.66.62 3.37.28 4.7-.58a6.52 6.52 0 0 0 2.74-3.76c1.17-4.42-2.13-8.6-6.33-9.5-5.52-1.17-10.63 2.98-11.59 8.3-1.19 6.61 3.82 12.67 10.24 13.69 7.72 1.22 14.73-4.65 15.8-12.18 1.26-8.82-5.47-16.8-14.1-17.93-7.34-.96-14.13 2.95-17.66 8.99-.17-3.46.46-6.1 1.53-8.15a12.36 12.36 0 0 1 5.55-5.29 21.14 21.14 0 0 1 8.24-2.04z" color="#000" paint-order="stroke markers fill"/>
    </g>
    <ellipse id="ellipse43139" cx="-2437.95" cy="345.35" fill="#fffcf7" stroke="none" stroke-dasharray="none" stroke-linecap="round" stroke-opacity="1" stroke-width="15.42" display="inline" paint-order="stroke fill markers" rx="3.62" ry="3.53"/>
    <ellipse id="ellipse43141" cx="-2487.6" cy="337.74" fill="#fffcf7" stroke="none" stroke-dasharray="none" stroke-linecap="round" stroke-opacity="1" stroke-width="15.42" display="inline" paint-order="stroke fill markers" rx="3.62" ry="3.53"/>
    <g id="g43203" stroke-dasharray="none" stroke-width="1.32" display="inline" transform="translate(-2898.91 52.56) scale(1.55353)">
      <path id="path43143" fill="#797979" stroke="none" stroke-linecap="round" stroke-linejoin="round" stroke-opacity="1" d="m277.67 250.01 15.6-9v-2l-25.99-15-15.59 9v2z" display="inline" paint-order="markers fill stroke"/>
      <path id="path43145" fill="#696969" stroke="none" stroke-linecap="round" stroke-linejoin="round" stroke-opacity="1" d="m251.7 233.01 15.58-9 25.98 15-15.59 9z" paint-order="markers fill stroke"/>
      <g id="g43187" fill="#757575" stroke="none" stroke-linecap="round" stroke-linejoin="round" stroke-opacity="1" paint-order="markers fill stroke" transform="translate(-77.4 -16.99)">
        <path id="path43147" d="m344.6 243.02-2.22 1.29 2.23 1.29 2.23-1.3z"/>
        <path id="path43149" d="m341.26 244.95-2.23 1.29 2.23 1.29 2.23-1.3z"/>
        <path id="path43151" d="m344.6 246.88-2.22 1.29 2.23 1.29 2.23-1.29z"/>
        <path id="path43153" d="m347.95 244.95-2.23 1.29 2.23 1.29 2.23-1.3z"/>
        <path id="path43155" d="m351.3 246.88-2.23 1.29 2.23 1.29 2.23-1.29z"/>
        <path id="path43157" d="m347.95 248.81-2.23 1.3 2.23 1.28 2.23-1.29z"/>
        <path id="path43159" d="m351.3 250.74-2.23 1.3 2.23 1.28 2.23-1.29z"/>
        <path id="path43161" d="m354.64 248.81-2.23 1.3 2.23 1.28 2.23-1.29z"/>
        <path id="path43163" d="m357.99 250.74-2.23 1.3 2.23 1.28 2.23-1.29z"/>
        <path id="path43165" d="m354.64 252.68-2.23 1.28 2.23 1.3 2.23-1.3z"/>
        <path id="path43167" d="m357.99 254.6-2.23 1.3 2.23 1.28 2.23-1.29z"/>
        <path id="path43169" d="m361.33 252.68-2.23 1.28 2.23 1.3 2.23-1.3z"/>
        <path id="path43171" d="m361.33 256.54-2.23 1.29 2.23 1.28 2.23-1.28z"/>
        <path id="path43173" d="m364.68 254.6-2.23 1.3 2.23 1.28 2.23-1.29z"/>
        <path id="path43175" d="m347.95 252.68-2.23 1.28 2.23 1.3 2.23-1.3z"/>
        <path id="path43177" d="m351.3 254.6-2.23 1.3 2.23 1.28 2.23-1.29z"/>
        <path id="path43179" d="m354.64 256.54-2.23 1.29 2.23 1.28 2.23-1.28z"/>
        <path id="path43181" d="m357.99 258.47-2.23 1.29 2.23 1.28 2.23-1.28z"/>
        <path id="path43183" d="m351.3 258.47-2.23 1.29 2.23 1.28 2.23-1.28z"/>
        <path id="path43185" d="m354.64 260.4-2.23 1.29 2.23 1.28 2.23-1.28z"/>
      </g>
      <path id="path43189" fill="#505050" stroke="none" stroke-linecap="round" stroke-linejoin="round" stroke-opacity="1" d="m243.03 218.01-1.73 1 8.66 15 25.98 15 1.73-1-8.66-15-25.98-15z" display="inline" paint-order="markers fill stroke"/>
      <path id="path43191" fill="#636363" stroke="none" stroke-linecap="round" stroke-linejoin="round" stroke-opacity="1" d="m249.96 234.01-8.66-15 25.98 15 8.66 15z" paint-order="markers fill stroke"/>
      <g id="g43201" transform="translate(-77.4 -16.99)">
        <path id="path43193" fill="#615e5d" d="m334.76 251.18-1.65.53s-.02.08.13.23c.14.16.39.29.71.35.3.05 1.03.13 1.36.1.23-.02.63 0 .81-.12.09-.06.12-.12.08-.26-.13-.45-.55-.86-.55-.86z"/>
        <path id="path43195" fill="#727272" d="M333.33 251.9c.28.13.84.1 1.13.1.3.02 1.34 0 1.36-.24 0-.14-.14-.48-.44-.83-.31-.35-.76-.74-1.1-.78-.33-.04-.55.6-.72.81-.21.3-.38.57-.44.7-.02.05 0 .08 0 .08s.1.12.22.16"/>
        <path id="path43197" fill="#615e5d" d="M335.36 250.41c.04.1-.01.13-.1.18-.13.08-.23.01-.22.1.01.05.14.22.36.45.2.2.34.32.38.34.1.04.09-.07.23-.12.1-.05.14-.06.23 0 .1.06.21.18.36.34.22.23.57.52.8.6.3.08.15-.22.17-.24.02-.01.29.15.35.07.06-.08-.1-.44-.2-.58-.12-.15-3.37-2.58-3.37-2.58s.06.28.29.6c.35.47.65.66.72.84"/>
        <path id="path43199" fill="#727272" d="M335 249.11c.04.02.2-.26 1.07.5.82.71.8 1.09.84 1.14.04.04.32.2.6.52.28.34.3.45.3.45s.06.2-.2.08c-.16-.06-.4-.26-.44-.26-.04 0 .1.26-.17.17a3.77 3.77 0 0 1-1.02-.78c-.4-.42-.45-.63-.7-.86-.32-.33-.95-.87-.94-1.17 0-.34.62.2.66.21"/>
      </g>
    </g>
    <g id="g43209" fill="#ba907e" stroke-linecap="round" color="#000" display="inline" paint-order="stroke fill markers" transform="rotate(39.72 -1272.96 -3671.38) scale(1.55768)">
      <path id="path43205" d="M284.23 119.5a4.93 4.93 0 0 0-4.97 4.9l-.17 19.36a4.93 4.93 0 0 0 4.88 4.97 4.93 4.93 0 0 0 4.98-4.88l.17-19.37a4.93 4.93 0 0 0-4.9-4.97z" style="-inkscape-stroke:none"/>
      <path id="path43207" d="m284.02 143.8.17-19.36" style="-inkscape-stroke:none"/>
    </g>
  </g>
</svg>
