<svg xmlns="http://www.w3.org/2000/svg" xml:space="preserve" viewBox="0 0 200.01 200">
  <g paint-order="stroke markers fill">
    <path fill="#004d00" d="M0 0h200v200H0z"/>
    <path d="M1587.2 223.01v14.8a13.75 13.75 0 0 1 4.51-4.36c1-.62 2.09-1.07 3.26-1.32.4-.09.74-.05 1.04.1.32.15.57.37.75.67.17.28.27.59.28.92.02.33-.08.63-.28.92-.18.27-.5.47-.94.6a9.21 9.21 0 0 0-4.4 2.6 7.34 7.34 0 0 0-2.04 3.32 5.57 5.57 0 0 0 .17 3.47 10.15 10.15 0 0 0 2.4 3.47c1.75 1.75 3.5 2.66 5.26 2.73 1.76.08 3.46-.72 5.12-2.37.57-.57 1.09-1.2 1.56-1.9.32-.49.58-1 .85-1.5l-3.48-3.49-2.36 2.35c-.35.36-.72.55-1.11.56-.37 0-.71-.16-1.03-.47-.32-.33-.48-.67-.47-1.03.03-.37.22-.73.58-1.09l3.53-3.53c.36-.36.73-.53 1.11-.51.39-.02.76.15 1.12.51l5.2 5.2c.3.31.5.64.6.98.1.33.06.68-.11 1.05a19.59 19.59 0 0 1-3.77 5.35 12.4 12.4 0 0 1-5.18 3.3 8.9 8.9 0 0 1-5.28-.07 12.47 12.47 0 0 1-5-3.2 14.5 14.5 0 0 1-1.89-2.34v6.06l5.35 5.35c.44.44.67.9.7 1.39.02.47-.2.93-.66 1.39-.44.44-.9.66-1.4.66a2.15 2.15 0 0 1-1.38-.7l-2.6-2.61v4.2c.26.07.53.1.78.35.37.37.56.77.56 1.2 0 .4-.2.8-.58 1.18l-.77.76v27.09a9.53 9.53 0 0 1 3.1 2.12 9.67 9.67 0 0 1 2.33 3.5 6.1 6.1 0 0 1-1.48 6.57 5.85 5.85 0 0 1-2.99 1.66c-.33.06-.64.03-.96.02v25.47c.47 0 .94.06 1.41.2.96.3 1.93.96 2.93 1.96l5.14 5.13c.44.44.67.9.7 1.35.02.44-.18.86-.57 1.26-.4.4-.83.6-1.29.6-.46-.03-.9-.26-1.35-.7l-.65-.66c.22.44.45.88.5 1.36a4.1 4.1 0 0 1-.25 1.93 6.6 6.6 0 0 1-3.68 3.42 5.4 5.4 0 0 1-2.6.2c-.1-.03-.19-.09-.29-.12v3.64c.04 0 .07-.04.1-.04.32 0 .59.11.82.34.23.23.33.5.32.8 0 .3-.12.59-.36.83l-.88.87v22.28l7.46 7.46c.44.44.67.9.68 1.36 0 .46-.21.9-.64 1.33-.43.43-.87.64-1.33.64a2.04 2.04 0 0 1-1.37-.68l-.54-.55c.26.76.39 1.53.22 2.37a5.71 5.71 0 0 1-1.65 2.97 6.28 6.28 0 0 1-2.83 1.66v26.19c.32.04.63.04.95.14.74.22 1.45.6 2.14 1.08h3.65c-.22-.18-.44-.32-.65-.52a9.13 9.13 0 0 1-1.89-2.62 6.52 6.52 0 0 1 .05-5.56 8.82 8.82 0 0 1 3.57-3.96 7.3 7.3 0 0 1 2.2-.92c.37-.08.7-.06.97.07a1.62 1.62 0 0 1 .92 1.39c.01.27-.06.53-.22.77-.17.23-.44.4-.81.51-.5.13-.96.32-1.37.56a4.57 4.57 0 0 0-2.1 2.27 3.45 3.45 0 0 0 .2 3.14c.28.54.7 1.09 1.24 1.63a5.45 5.45 0 0 0 3.25 1.75 3.8 3.8 0 0 0 3.06-1.26 5.81 5.81 0 0 0 1.37-2.44c.11-.37.28-.63.51-.77a1.37 1.37 0 0 1 1.56.1c.23.18.4.4.52.7.13.26.15.57.06.91a7.47 7.47 0 0 1-.88 2.12c-.4.66-.83 1.22-1.3 1.69-.18.18-.37.28-.55.44h22.52l.01-.16a5.2 5.2 0 0 1 1.52-2.76 4.82 4.82 0 0 1 2.67-1.48c.81-.12 1.66.1 2.54.53a4.99 4.99 0 0 1-.23-2.71 5.6 5.6 0 0 1 1.6-2.93c.8-.8 1.62-1.3 2.45-1.5a3.99 3.99 0 0 1 2.6.26 9.03 9.03 0 0 1 2.79 2l5.18 5.19c.44.44.66.9.66 1.39 0 .45-.21.9-.64 1.32-.43.43-.87.65-1.33.65a2.04 2.04 0 0 1-1.37-.69l-5.07-5.07c-.8-.8-1.52-1.25-2.16-1.35-.63-.11-1.25.14-1.88.77-.7.7-1 1.5-.9 2.4a4.4 4.4 0 0 0 1.43 2.63l1.51 1.51h30.26c.1-.14.14-.3.28-.43.33-.33.68-.5 1.07-.51.38-.02.72.12 1 .4.13.12.15.37.23.54h5.49l-2.76-2.76c-.45-.45-.67-.9-.67-1.35 0-.46.2-.9.62-1.3.43-.43.87-.65 1.33-.65.46 0 .9.22 1.35.67l.55.55a4.44 4.44 0 0 1-.21-2.35 5.85 5.85 0 0 1 1.67-3 6.1 6.1 0 0 1 6.57-1.47 9.34 9.34 0 0 1 3.46 2.3 9.67 9.67 0 0 1 2.34 3.5c.42 1.2.52 2.35.27 3.48a5.94 5.94 0 0 1-1.2 2.38h21.44a5.75 5.75 0 0 1 5.38-.56c.37.13.73.36 1.1.56h5.09c-.02-.09-.07-.17-.07-.26a5 5 0 0 1 .96-2.93c.7-1.1 1.8-2.4 3.32-3.92l.74-.75-.44-.44c-.72-.72-1.39-1.07-2.02-1.07-.62 0-1.3.37-2.05 1.1a9.5 9.5 0 0 0-2.18 3.52c-.15.4-.35.67-.62.83-.26.14-.53.19-.82.13-.3-.07-.55-.21-.77-.43a1.75 1.75 0 0 1-.45-.79c-.1-.33-.06-.68.11-1.05a13.75 13.75 0 0 1 2.8-4.3 8.3 8.3 0 0 1 3-2.05 4.4 4.4 0 0 1 2.93-.07c.96.3 1.93.95 2.93 1.95l5.14 5.14c.44.44.68.89.7 1.34.02.45-.17.87-.57 1.27-.4.4-.83.6-1.29.6-.45-.03-.9-.27-1.35-.71l-.65-.65c.22.44.45.88.5 1.35a4.1 4.1 0 0 1-.25 1.93c-.04.1-.13.17-.18.26h27.35c-.06-.14-.15-.27-.19-.4a7.04 7.04 0 0 1-.04-3.77c.33-1.27 1-2.42 2-3.43a7.29 7.29 0 0 1 2.36-1.62 6.2 6.2 0 0 1 5.2.24 9.18 9.18 0 0 1 2.53 1.83 1 1 0 0 1 .32.88c-.04.3-.23.61-.56.94l-5.33 5.33h5.47c.18-.22.35-.39.53-.64.37-.57.64-1.18.83-1.82.13-.47.32-.8.58-1 .24-.22.5-.32.77-.3.28 0 .55.08.79.27.23.17.4.42.5.75a2 2 0 0 1 .01 1.09 7.4 7.4 0 0 1-.62 1.65h13.08v-14a2.35 2.35 0 0 1-1.07-.62 2.13 2.13 0 0 1-.69-1.54c-.01-.58.22-1.12.7-1.6a2.2 2.2 0 0 1 1.06-.58V367.9a5.74 5.74 0 0 1-2.72 1.49c-.82.16-1.57.06-2.3-.16l4.33 4.33c.44.44.66.9.64 1.37 0 .45-.21.9-.64 1.32-.43.43-.87.65-1.33.65-.45 0-.9-.22-1.34-.67l-11.96-11.96c-.45-.44-.67-.89-.67-1.35 0-.45.2-.89.62-1.3.43-.43.87-.64 1.33-.64.46 0 .9.22 1.35.66l.55.55a4.44 4.44 0 0 1-.21-2.35 5.85 5.85 0 0 1 1.67-3 6.1 6.1 0 0 1 6.57-1.47 9.34 9.34 0 0 1 3.46 2.31c.26.25.43.52.65.78v-6.82c-.1.12-.16.3-.28.37-.26.14-.53.19-.82.13-.3-.07-.55-.21-.77-.43a1.75 1.75 0 0 1-.45-.79c-.1-.33-.06-.68.11-1.05.39-.93.82-1.75 1.3-2.46.3-.44.6-.75.9-1.1v-22.98a4.36 4.36 0 0 1-1.84-.23l.54.54c.44.44.67.9.69 1.37 0 .45-.21.89-.63 1.3-.42.43-.87.64-1.32.64a2.04 2.04 0 0 1-1.37-.68l-12.71-12.71c-.44-.44-.66-.9-.66-1.35 0-.45.21-.9.64-1.32.43-.43.87-.65 1.32-.65.47-.01.93.2 1.37.65l5.08 5.08a4.5 4.5 0 0 1-.13-2.28 5.8 5.8 0 0 1 1.64-2.93 6.16 6.16 0 0 1 3.08-1.76 6.28 6.28 0 0 1 3.5.28c.27.1.54.28.8.41v-31.61c-.5-.22-1-.5-1.42-.92a3.7 3.7 0 0 1-1.22-2.42 5 5 0 0 1 .96-2.93c.36-.56 1.12-1.33 1.69-2v-4.17l-.08-.02c-.63 0-1.31.37-2.05 1.11a9.5 9.5 0 0 0-2.19 3.51c-.14.4-.35.68-.62.84a1.2 1.2 0 0 1-.81.13 1.6 1.6 0 0 1-.77-.43 1.75 1.75 0 0 1-.45-.8c-.1-.32-.06-.67.1-1.04a13.75 13.75 0 0 1 2.81-4.3 8.3 8.3 0 0 1 3-2.06c.35-.13.7-.16 1.06-.2v-27.22c-.2-.03-.41-.02-.61-.07a8.21 8.21 0 0 1-3.58-2.2 8.3 8.3 0 0 1-2.18-3.51 7.04 7.04 0 0 1-.04-3.77c.24-.95.74-1.8 1.36-2.6h-34.9c.21.4.48.79.86 1.17l4.43 4.42c.44.45.67.9.69 1.37 0 .46-.22.91-.67 1.35-.44.44-.9.67-1.37.69a2.04 2.04 0 0 1-1.37-.69l-8.08-8.09c-.08-.07-.05-.15-.11-.22h-5.68l11.1 11.1c.44.44.66.9.68 1.36 0 .46-.22.9-.64 1.33-.43.43-.87.64-1.33.64a2.04 2.04 0 0 1-1.37-.68l-.54-.55c.26.76.38 1.53.22 2.37a5.7 5.7 0 0 1-1.65 2.97 6.26 6.26 0 0 1-3.08 1.76 6.28 6.28 0 0 1-3.49-.28 9.67 9.67 0 0 1-3.48-2.34 9.34 9.34 0 0 1-2.32-3.46 6.28 6.28 0 0 1-.27-3.49 6.26 6.26 0 0 1 1.75-3.08 5.65 5.65 0 0 1 2.91-1.63 4.5 4.5 0 0 1 2.34.16l-5.12-5.12a1.9 1.9 0 0 1-.52-1.06h-15.88a5.84 5.84 0 0 1-1.87 4.77 5.8 5.8 0 0 1-2.93 1.65c-.81.16-1.57.07-2.3-.15l4.34 4.32c.44.45.65.9.64 1.37 0 .46-.22.9-.64 1.33-.43.43-.87.64-1.33.64-.46 0-.9-.22-1.35-.66l-11.96-11.96a1.92 1.92 0 0 1-.64-1.31h-21.98c-.06.06-.08.13-.15.2-.41.4-.85.61-1.3.61a2.04 2.04 0 0 1-1.37-.68l-.13-.13h-.23a5 5 0 0 1 .08 2 5.2 5.2 0 0 1-1.52 2.75 6.29 6.29 0 0 1-2.63 1.7 4.4 4.4 0 0 1-2.74-.18 8.74 8.74 0 0 1-2.8-1.99l-4.28-4.28h-23.66c.52.28 1 .56 1.55.84.55.25.89.57 1.03.94.16.38.17.75.02 1.09-.13.33-.36.59-.7.79-.32.2-.68.25-1.1.15a21.88 21.88 0 0 1-6.33-2.48c-.67-.4-1.3-.87-1.93-1.33h-8.13l5.5 5.5c.4.4.62.81.65 1.24.03.43-.13.81-.47 1.16-.33.33-.66.52-.99.6-.31.05-.73.05-1.24 0l-17.58-2.3 9.43 9.42c.43.43.65.86.66 1.3.02.45-.18.88-.6 1.29-.41.41-.85.62-1.3.62-.44-.01-.88-.23-1.3-.66l-12.74-12.73c-.44-.45-.67-.89-.68-1.33a1.6 1.6 0 0 1 .51-1.24c.33-.33.63-.5.92-.54.29-.05.68-.05 1.2 0l17.55 2.28-4.6-4.61zm76.32 0 1.65 1.65c.74.74 1.44 1.14 2.1 1.2.65.05 1.3-.25 1.97-.9.57-.57.83-1.23.93-1.95zm39.41 0c.04.18-.02.33.05.52.28.7.8 1.44 1.56 2.2 1.13 1.13 2.23 1.74 3.3 1.84a3.4 3.4 0 0 0 2.78-1.07c.53-.53.86-1.12 1-1.78.12-.54 0-1.12-.17-1.71zm83.26 0c-.51.15-1 .42-1.46.89a3.72 3.72 0 0 0-.91 4.11c.18.43.58.85.9 1.28l2.48-2.48v-3.8zm-15.43 2.75c.47-.01.92.2 1.37.64l12.7 12.71c.45.44.68.9.69 1.37 0 .46-.21.9-.64 1.33-.43.43-.87.64-1.33.64a2.04 2.04 0 0 1-1.37-.69l-.54-.54c.26.75.38 1.53.22 2.36a5.7 5.7 0 0 1-1.65 2.98 6.26 6.26 0 0 1-3.08 1.75 6.28 6.28 0 0 1-3.49-.28 9.66 9.66 0 0 1-3.48-2.33 9.34 9.34 0 0 1-2.31-3.46 6.28 6.28 0 0 1-.28-3.5 6.26 6.26 0 0 1 1.75-3.07 5.65 5.65 0 0 1 2.91-1.63 4.5 4.5 0 0 1 2.34.16l-5.12-5.12c-.44-.45-.66-.9-.66-1.35 0-.46.21-.9.64-1.33.43-.43.87-.64 1.33-.64zm-113.85 1.32c.4.06.75.25 1.07.58.33.32.53.7.6 1.1.07.4.01.82-.17 1.3l-4.94 12.17c-.15.34-.35.58-.6.72-.25.13-.5.17-.77.13a1.4 1.4 0 0 1-.71-.32 1.38 1.38 0 0 1-.36-1.6l4.5-11-11 4.5c-.34.12-.64.15-.9.08a1.47 1.47 0 0 1-1.06-1.18c-.04-.27 0-.53.13-.77.15-.26.39-.46.73-.6l12.2-4.92c.46-.2.89-.26 1.28-.2zm130.3 2.82-.98.97c.33.26.65.57.97.74zm-50.11.97a3.4 3.4 0 0 0-2.78 1.07 3.43 3.43 0 0 0-.81 3.85c.28.72.8 1.45 1.56 2.2 1.12 1.14 2.22 1.75 3.29 1.85a3.4 3.4 0 0 0 2.78-1.07 3.42 3.42 0 0 0 .8-3.83 6.63 6.63 0 0 0-1.57-2.25c-1.14-1.14-2.23-1.75-3.27-1.82zm-48.74 1.28c.57 0 1.1.23 1.57.7.45.46.69.98.7 1.57.03.57-.2 1.1-.7 1.6-.49.49-1.03.73-1.63.73a2.23 2.23 0 0 1-1.56-.7c-.47-.48-.7-1-.7-1.57 0-.6.23-1.14.72-1.63.5-.5 1.03-.73 1.6-.7zm-10.37.79c.47-.01.92.2 1.37.64l12.7 12.71c.45.44.68.9.7 1.37 0 .46-.22.9-.65 1.33-.43.43-.87.64-1.33.64a2.04 2.04 0 0 1-1.37-.68l-.54-.55c.26.75.38 1.53.22 2.36a5.7 5.7 0 0 1-1.65 2.98 6.26 6.26 0 0 1-3.08 1.75 6.28 6.28 0 0 1-3.48-.28 9.67 9.67 0 0 1-3.5-2.33 9.34 9.34 0 0 1-2.3-3.46 6.28 6.28 0 0 1-.28-3.5 6.26 6.26 0 0 1 1.75-3.07 5.65 5.65 0 0 1 2.91-1.63 4.5 4.5 0 0 1 2.34.16l-5.12-5.12c-.44-.45-.66-.9-.66-1.35 0-.46.21-.9.64-1.33.43-.43.87-.64 1.33-.64zm42.14.65c.47-.01.93.2 1.37.64l12.71 12.71c.44.44.67.9.68 1.37 0 .46-.21.9-.64 1.33-.43.43-.87.64-1.32.64a2.04 2.04 0 0 1-1.37-.68l-.55-.55c.27.75.39 1.53.23 2.36a5.7 5.7 0 0 1-1.65 2.98 6.26 6.26 0 0 1-3.08 1.75 6.28 6.28 0 0 1-3.5-.27 9.67 9.67 0 0 1-3.48-2.34 9.34 9.34 0 0 1-2.31-3.46 6.28 6.28 0 0 1-.28-3.5 6.26 6.26 0 0 1 1.76-3.07 5.65 5.65 0 0 1 2.9-1.63c.84-.17 1.6-.08 2.35.16l-5.13-5.12c-.44-.44-.66-.9-.66-1.35 0-.46.22-.9.64-1.33.43-.43.87-.64 1.33-.64zm54.76 2.29a3.4 3.4 0 0 0-2.79 1.07 3.43 3.43 0 0 0-.81 3.85c.29.72.8 1.45 1.56 2.2 1.13 1.13 2.23 1.75 3.3 1.85a3.4 3.4 0 0 0 2.78-1.07 3.42 3.42 0 0 0 .8-3.83 6.63 6.63 0 0 0-1.57-2.25c-1.14-1.14-2.23-1.75-3.27-1.82zm-78.95 3.84c.61.05 1.23.38 1.86 1a8 8 0 0 1 .96 1.19 7.17 7.17 0 0 1 1.2 3.47c.04.4-.03.73-.21.98a.9.9 0 0 1-.64.42.89.89 0 0 1-.75-.23c-.22-.19-.35-.5-.39-.94a4.3 4.3 0 0 0-.5-1.65c-.07-.15-.17-.23-.25-.36-.43.35-.87.64-1.37.66-.6 0-1.14-.24-1.62-.73a2.13 2.13 0 0 1-.69-1.54c-.01-.58.22-1.12.7-1.6a2.1 2.1 0 0 1 1.7-.67zm-51.65.94c.41-.01.77.14 1.09.45a1.5 1.5 0 0 1 0 2.14l-4.56 4.56c-.31.31-.68.48-1.1.5a1.54 1.54 0 0 1-1.06-.48 1.47 1.47 0 0 1-.47-1.07c.01-.41.18-.78.49-1.09l4.56-4.56c.3-.3.65-.45 1.05-.45zm37.83 2.4a3.4 3.4 0 0 0-2.79 1.07 3.43 3.43 0 0 0-.81 3.85c.29.72.8 1.45 1.56 2.2 1.13 1.13 2.23 1.75 3.3 1.85a3.4 3.4 0 0 0 2.78-1.07 3.42 3.42 0 0 0 .8-3.83c-.3-.75-.81-1.5-1.57-2.25-1.14-1.14-2.23-1.75-3.27-1.82zm42.14.65a3.4 3.4 0 0 0-2.78 1.07 3.43 3.43 0 0 0-.81 3.85c.28.72.8 1.45 1.56 2.2 1.12 1.13 2.22 1.75 3.3 1.85a3.4 3.4 0 0 0 2.77-1.07 3.44 3.44 0 0 0 .8-3.83 6.64 6.64 0 0 0-1.57-2.25c-1.14-1.14-2.23-1.75-3.27-1.82zm-91.55.66c.36-.02.73.15 1.13.49.39.33.6.7.62 1.13.03.4-.12.82-.47 1.24l-.42.52a4.33 4.33 0 0 0-1.16 2.78c0 .88.4 1.73 1.22 2.54l4.43 4.43c.44.45.67.9.68 1.37 0 .46-.22.9-.66 1.35-.44.44-.9.67-1.37.69a2.04 2.04 0 0 1-1.37-.69l-8.09-8.09c-.44-.44-.66-.89-.66-1.35 0-.45.2-.89.62-1.3.41-.41.85-.62 1.3-.62.46 0 .91.22 1.35.66l.8.8a4.38 4.38 0 0 1-.43-2.36 6.29 6.29 0 0 1 1.54-3.12c.27-.33.58-.49.94-.47zm130.02.02c.44.03.9.14 1.35.33a8.6 8.6 0 0 1 2.8 1.99l5.18 5.18c.44.44.67.9.69 1.36 0 .46-.22.9-.65 1.33a2 2 0 0 1-1.34.66 2.04 2.04 0 0 1-1.37-.68l-5.05-5.05c-.82-.81-1.57-1.25-2.25-1.3-.67-.08-1.33.2-1.97.85a3.49 3.49 0 0 0-1.13 2.63c.03.94.45 1.82 1.26 2.63l4.69 4.7c.9.9.92 1.8.02 2.7-.43.44-.87.65-1.33.65a2.04 2.04 0 0 1-1.37-.69l-8.09-8.08c-.44-.45-.66-.9-.66-1.35 0-.46.2-.9.62-1.3.41-.42.85-.63 1.3-.63.46 0 .91.22 1.35.67l.53.53a4.77 4.77 0 0 1-.1-2.54 6.15 6.15 0 0 1 1.67-2.87 5.8 5.8 0 0 1 2.55-1.6c.42-.12.86-.16 1.3-.12zm-17.29 6.38c.52-.03 1 .19 1.46.64.44.45.65.93.64 1.46-.03.51-.3 1.03-.81 1.54-.5.5-1.02.77-1.54.81-.53.02-1.02-.2-1.46-.64-.46-.46-.67-.94-.64-1.45.04-.53.31-1.04.81-1.54.52-.52 1.03-.79 1.54-.82zm-75.48.8c.44.03.9.14 1.35.33a8.6 8.6 0 0 1 2.8 1.99l5.18 5.18c.44.44.67.9.69 1.36 0 .46-.22.9-.65 1.33a2 2 0 0 1-1.34.66 2.04 2.04 0 0 1-1.37-.68l-5.05-5.05c-.82-.81-1.56-1.25-2.25-1.3-.67-.08-1.33.2-1.97.85a3.49 3.49 0 0 0-1.13 2.63c.03.94.45 1.82 1.26 2.63l4.69 4.7c.9.9.92 1.81.02 2.7-.43.44-.87.65-1.33.65a2.04 2.04 0 0 1-1.37-.68l-8.09-8.1c-.44-.44-.66-.88-.66-1.34 0-.46.2-.9.62-1.3.41-.42.85-.63 1.3-.63.46 0 .91.22 1.35.67l.53.53a4.77 4.77 0 0 1-.1-2.54 6.15 6.15 0 0 1 1.67-2.87 5.8 5.8 0 0 1 2.55-1.6c.42-.12.86-.16 1.3-.12zm41.95.85c.49-.02.97.06 1.46.21.95.3 1.93.95 2.93 1.95l5.13 5.14c.45.44.68.89.71 1.34.02.45-.18.87-.58 1.27-.4.4-.82.6-1.28.6-.46-.03-.9-.27-1.35-.71l-.65-.65c.22.44.45.88.5 1.36a4.1 4.1 0 0 1-.26 1.92 6.6 6.6 0 0 1-3.68 3.42c-.88.3-1.74.36-2.58.2a4.26 4.26 0 0 1-2.19-1.2 3.7 3.7 0 0 1-1.22-2.42 5 5 0 0 1 .97-2.93c.7-1.1 1.8-2.4 3.31-3.91l.75-.75-.45-.45c-.71-.72-1.38-1.07-2-1.07-.64 0-1.32.37-2.06 1.11a9.5 9.5 0 0 0-2.19 3.5c-.14.4-.35.69-.62.84-.25.15-.52.19-.8.13-.3-.07-.57-.21-.78-.43a1.75 1.75 0 0 1-.45-.79 1.5 1.5 0 0 1 .1-1.05 13.75 13.75 0 0 1 2.81-4.3 8.3 8.3 0 0 1 3-2.05 4.5 4.5 0 0 1 1.47-.28zm-88.06 3.16c.89.03 1.76.26 2.63.7a9.18 9.18 0 0 1 2.53 1.84 1 1 0 0 1 .32.88c-.04.3-.23.61-.56.94l-6.41 6.42c.9.71 1.8 1.19 2.67 1.22 1.13.02 2.22-.51 3.3-1.58a9.6 9.6 0 0 0 1.1-1.37c.38-.57.66-1.18.84-1.82.13-.47.32-.8.58-1 .24-.22.5-.32.77-.3.28 0 .55.09.79.27.23.17.4.42.5.75.1.32.11.68.01 1.1a8.12 8.12 0 0 1-1.02 2.43c-.5.79-1.03 1.46-1.59 2.01a9.32 9.32 0 0 1-3.72 2.4c-1.3.41-2.59.45-3.87.1a8.21 8.21 0 0 1-3.58-2.2 8.3 8.3 0 0 1-2.18-3.5 7.04 7.04 0 0 1-.04-3.77c.33-1.27 1-2.41 2.01-3.43a7.3 7.3 0 0 1 2.35-1.62 5.8 5.8 0 0 1 2.57-.47zm126.24.22c.48 0 .96.24 1.43.7l7.85 7.86c.46.46.7.93.73 1.41.03.49-.18.95-.62 1.4-.43.42-.89.62-1.37.6a2.2 2.2 0 0 1-1.41-.74l-7.86-7.85c-.47-.47-.7-.94-.72-1.41-.03-.49.17-.94.6-1.37.42-.43.88-.63 1.37-.6zm-126.61 2.54a3.32 3.32 0 0 0-2.62 1.05 3.9 3.9 0 0 0-1.12 1.96c-.14.69-.07 1.4.22 2.14.18.46.48.91.83 1.36l5.22-5.22a5.37 5.37 0 0 0-1.6-1.06c-.32-.12-.63-.2-.93-.23zm91.94.46-.72.72c-.89.89-1.55 1.64-2 2.25a3.05 3.05 0 0 0-.68 1.58c-.01.42.17.81.54 1.18.47.47 1.02.7 1.64.66a2.77 2.77 0 0 0 1.82-.92 3.32 3.32 0 0 0 .88-3.36 3.8 3.8 0 0 0-1-1.64zm-106.55.29c.29-.06.56-.02.82.13a1.61 1.61 0 0 1 .86 1.37c0 .27-.09.52-.29.74l-.27.32c-.76.87-1.14 1.67-1.16 2.4-.01.73.34 1.46 1.07 2.18l.45.45 1.82-1.82c.34-.34.69-.52 1.05-.53.35-.02.7.14 1.02.47.32.31.47.66.47 1.03 0 .35-.19.7-.53 1.05l-1.82 1.81 7.26 7.26c.9.91.92 1.81.04 2.7a2 2 0 0 1-1.35.66 2.04 2.04 0 0 1-1.37-.69l-7.25-7.25-.99.98c-.34.35-.69.52-1.05.54-.1 0-.2-.04-.3-.07.03.1.07.2.07.3-.02.36-.2.71-.54 1.05l-1.82 1.82 7.26 7.25c.91.92.93 1.82.04 2.7a2 2 0 0 1-1.35.66 2.04 2.04 0 0 1-1.37-.68l-7.25-7.25-.98.98c-.35.34-.7.52-1.05.53a1.4 1.4 0 0 1-1.03-.47 1.36 1.36 0 0 1-.47-1.02c.01-.36.2-.7.54-1.05l.98-.99-.02-.02c-1.47-1.47-2.2-2.94-2.18-4.4 0-1.49.63-3 1.9-4.52l.66-.8c.26-.3.54-.48.84-.53.28-.05.55-.01.81.13a1.69 1.69 0 0 1 .86 1.37c.01.27-.08.52-.28.75l-.28.32c-.76.87-1.14 1.67-1.16 2.4 0 .72.35 1.45 1.07 2.18l.45.45 1.82-1.82c.35-.34.7-.52 1.05-.53.1 0 .2.03.3.06-.03-.1-.07-.2-.06-.3.01-.36.19-.7.53-1.05l.99-.98-.03-.02c-1.46-1.47-2.2-2.94-2.18-4.41 0-1.48.64-2.99 1.9-4.52l.67-.79c.26-.31.53-.49.83-.53zm49.13 5.13c.89.03 1.76.27 2.63.7a9.18 9.18 0 0 1 2.53 1.85 1 1 0 0 1 .32.88c-.04.3-.23.6-.56.94l-6.41 6.41c.9.72 1.8 1.2 2.67 1.23 1.13.01 2.22-.52 3.3-1.59a9.6 9.6 0 0 0 1.1-1.37c.38-.57.66-1.17.84-1.82.13-.47.32-.8.58-1 .24-.21.5-.31.77-.3.28 0 .55.1.8.28.22.17.38.42.48.75.12.31.12.67.02 1.09a8.12 8.12 0 0 1-1.02 2.44c-.5.78-1.03 1.45-1.59 2a9.32 9.32 0 0 1-3.72 2.4c-1.3.42-2.59.45-3.87.11a8.21 8.21 0 0 1-3.58-2.2 8.3 8.3 0 0 1-2.18-3.51 7.04 7.04 0 0 1-.04-3.77c.33-1.27 1-2.4 2.01-3.42a7.3 7.3 0 0 1 2.35-1.63c.85-.35 1.7-.51 2.57-.47zm-1.28 2.83c-.6.11-1.17.44-1.71.98-.6.6-.97 1.26-1.12 1.97-.14.68-.07 1.4.22 2.14.17.43.57.86.9 1.29l5.12-5.13a5.65 5.65 0 0 0-1.57-1.08 2.95 2.95 0 0 0-1.84-.17zm99.63 3.4c.32 0 .59.12.82.35.23.23.33.5.32.8 0 .3-.12.58-.37.83l-8.49 8.5c-.24.23-.53.36-.86.38-.3.01-.56-.1-.79-.32-.23-.23-.34-.5-.34-.82.01-.33.14-.61.39-.85l8.49-8.5c.24-.24.52-.36.83-.36zm-44.29 1.5c.32 0 .59.12.82.35.22.23.33.49.32.79 0 .31-.12.6-.37.83l-8.5 8.5a1.2 1.2 0 0 1-.85.38.99.99 0 0 1-.79-.32c-.23-.22-.34-.5-.34-.81.01-.33.14-.61.38-.86l8.5-8.49c.24-.24.52-.36.83-.36zm22.56 1.25a6.2 6.2 0 0 1 2.63.7 9.18 9.18 0 0 1 2.52 1.84 1 1 0 0 1 .32.88c-.04.3-.23.61-.55.94l-6.42 6.42c.9.7 1.8 1.19 2.67 1.22 1.13.02 2.23-.51 3.3-1.58a9.6 9.6 0 0 0 1.11-1.37c.37-.57.65-1.18.83-1.82.13-.47.33-.8.58-1 .24-.22.5-.32.77-.3.29 0 .55.09.8.27.22.17.39.42.49.75.11.31.12.68.02 1.1a8.12 8.12 0 0 1-1.03 2.43c-.5.79-1.03 1.46-1.58 2.01a9.32 9.32 0 0 1-3.73 2.4c-1.3.41-2.58.45-3.87.1a8.21 8.21 0 0 1-3.57-2.2 8.3 8.3 0 0 1-2.18-3.5 7.03 7.03 0 0 1-.05-3.77c.33-1.27 1-2.41 2.01-3.43a7.29 7.29 0 0 1 2.36-1.62c.84-.36 1.7-.52 2.57-.47zm42.04.85c.59.05 1.18.17 1.78.39a9.34 9.34 0 0 1 3.46 2.3 9.66 9.66 0 0 1 2.34 3.5c.42 1.2.52 2.36.27 3.48a6.16 6.16 0 0 1-1.75 3.09 5.8 5.8 0 0 1-2.93 1.64c-.82.16-1.57.07-2.3-.15l4.33 4.33c.44.44.66.9.64 1.36 0 .46-.21.9-.64 1.33-.43.43-.87.64-1.33.64-.45 0-.9-.22-1.34-.66l-11.96-11.96c-.45-.44-.67-.9-.67-1.35 0-.46.2-.89.62-1.3.43-.43.87-.65 1.33-.65.46 0 .9.22 1.35.67l.55.55a4.44 4.44 0 0 1-.21-2.35 5.85 5.85 0 0 1 1.67-3 6.1 6.1 0 0 1 4.8-1.86zm-86.34.65a6.2 6.2 0 0 1 2.64.7 9.18 9.18 0 0 1 2.52 1.84 1 1 0 0 1 .32.88c-.04.3-.23.61-.56.94l-6.4 6.41c.9.72 1.78 1.2 2.66 1.23 1.13.01 2.23-.52 3.3-1.58a9.6 9.6 0 0 0 1.1-1.37c.38-.57.66-1.18.84-1.82.13-.47.32-.8.58-1 .24-.22.5-.32.77-.3.29 0 .55.08.8.27.22.17.39.42.48.75.12.31.13.68.03 1.09a8.12 8.12 0 0 1-1.03 2.44c-.5.78-1.03 1.45-1.58 2.01a9.32 9.32 0 0 1-3.73 2.4c-1.3.41-2.59.45-3.87.1a8.21 8.21 0 0 1-3.57-2.2 8.3 8.3 0 0 1-2.19-3.5 7.03 7.03 0 0 1-.04-3.77c.33-1.27 1-2.42 2.01-3.43a7.3 7.3 0 0 1 2.36-1.62c.84-.36 1.7-.52 2.56-.47zm43.92 1.26a3.32 3.32 0 0 0-2.62 1.05 3.8 3.8 0 0 0-1.11 1.96c-.15.69-.07 1.4.21 2.14.17.44.57.86.9 1.29l5.12-5.12a5.65 5.65 0 0 0-1.57-1.09c-.31-.13-.62-.2-.93-.23zm-45.2 1.56c-.6.11-1.17.44-1.71.98a3.64 3.64 0 0 0-.9 4.11c.17.43.57.86.9 1.29l5.12-5.12a5.65 5.65 0 0 0-1.57-1.09 2.95 2.95 0 0 0-1.84-.17zm86.9.1a3.4 3.4 0 0 0-2.79 1.08 3.43 3.43 0 0 0-.81 3.85c.28.71.8 1.45 1.56 2.2 1.13 1.13 2.23 1.74 3.3 1.84a3.4 3.4 0 0 0 2.78-1.07c.53-.53.86-1.12 1-1.77.15-.66.07-1.35-.21-2.06a6.7 6.7 0 0 0-1.56-2.25c-1.14-1.14-2.23-1.74-3.28-1.81zm-136.02 1.39a1.48 1.48 0 0 1 1.18 1.05c.08.25.06.55-.09.9l-4.5 11 11-4.5c.35-.14.66-.16.93-.06.27.07.5.2.68.42.17.2.28.44.32.7.05.28 0 .54-.15.8-.13.24-.36.44-.7.58l-12.18 4.94c-.92.39-1.72.24-2.4-.43a1.9 1.9 0 0 1-.57-1.04c-.06-.4 0-.84.2-1.31l4.91-12.2c.14-.34.34-.57.58-.7.26-.14.52-.2.8-.15zm-43.22 1.67c.46-.03.91.18 1.37.64l8.09 8.09c.9.91.93 1.8.06 2.67-.41.42-.85.62-1.3.62a2.04 2.04 0 0 1-1.37-.68l-.45-.45c.22.78.31 1.55.17 2.3a5.2 5.2 0 0 1-1.52 2.77 6.29 6.29 0 0 1-2.63 1.69c-.9.24-1.82.18-2.74-.17a8.74 8.74 0 0 1-2.8-2l-5.18-5.17c-.46-.46-.68-.9-.67-1.35 0-.45.22-.9.64-1.32.43-.43.88-.65 1.33-.65.46-.02.91.19 1.37.65l5.22 5.22c.74.74 1.44 1.14 2.1 1.2.66.05 1.31-.25 1.97-.9a3.26 3.26 0 0 0 1.02-2.49 3.97 3.97 0 0 0-1.28-2.65l-4.7-4.7c-.46-.46-.68-.91-.67-1.36 0-.45.21-.9.64-1.32.43-.43.87-.64 1.33-.64zm125.6 2.79c.45 0 .9.22 1.34.66l8.24 8.24c1.7 1.7 2.52 3.42 2.48 5.18-.04 1.75-.92 3.48-2.63 5.2-.77.77-1.6 1.44-2.46 2.03-.86.57-1.73 1-2.61 1.28-.42.13-.77.15-1.07.05-.29-.12-.52-.3-.71-.54a1.54 1.54 0 0 1-.09-1.63c.15-.25.38-.43.71-.53a8.4 8.4 0 0 0 2.38-1.18c.67-.47 1.2-.9 1.6-1.3.96-.96 1.43-1.9 1.43-2.85.03-.94-.41-1.87-1.32-2.78l-1.55-1.55c.3.8.42 1.63.22 2.53a5.89 5.89 0 0 1-1.65 2.94 6.53 6.53 0 0 1-3.1 1.81c-1.14.26-2.3.19-3.47-.2a8.69 8.69 0 0 1-3.31-2.17 9.25 9.25 0 0 1-1.8-2.44 7.1 7.1 0 0 1-.7-2.59 5.9 5.9 0 0 1 .42-2.52 6.7 6.7 0 0 1 1.54-2.32 5.7 5.7 0 0 1 2.98-1.64 4.17 4.17 0 0 1 2.37.19l-.55-.56c-.45-.44-.67-.89-.67-1.34.02-.47.23-.92.64-1.33.43-.43.87-.64 1.33-.64zm-44.3 1.5c.46 0 .9.22 1.35.66l8.24 8.24c1.7 1.7 2.52 3.42 2.48 5.17-.05 1.76-.92 3.5-2.63 5.2-.78.77-1.6 1.45-2.47 2.04-.85.57-1.72 1-2.6 1.28-.42.13-.78.14-1.08.04a1.6 1.6 0 0 1-.7-.53 1.54 1.54 0 0 1-.09-1.63c.14-.25.38-.43.7-.53a8.4 8.4 0 0 0 2.38-1.18c.67-.47 1.2-.9 1.6-1.3.96-.96 1.44-1.9 1.44-2.85.03-.94-.41-1.87-1.32-2.78l-1.55-1.55c.3.8.41 1.62.22 2.53a5.89 5.89 0 0 1-1.65 2.93 6.53 6.53 0 0 1-3.1 1.82c-1.14.26-2.3.19-3.47-.21a8.69 8.69 0 0 1-3.31-2.16 9.25 9.25 0 0 1-1.8-2.44 7.11 7.11 0 0 1-.7-2.6 5.9 5.9 0 0 1 .42-2.52 6.7 6.7 0 0 1 1.54-2.3 5.7 5.7 0 0 1 2.98-1.65 4.16 4.16 0 0 1 2.37.18l-.56-.55c-.44-.44-.66-.89-.66-1.35.01-.47.23-.9.64-1.32.43-.43.87-.64 1.33-.64zm88.8 3.4c.39.06.75.25 1.07.58.33.32.53.7.6 1.1.07.4.01.82-.18 1.3l-4.94 12.17c-.14.34-.34.58-.6.72-.24.13-.5.18-.77.13a1.4 1.4 0 0 1-.7-.32 1.38 1.38 0 0 1-.36-1.6l4.49-11-11 4.5a1.5 1.5 0 0 1-.9.08 1.47 1.47 0 0 1-1.05-1.18c-.04-.27 0-.53.13-.77.14-.26.38-.46.73-.6l12.2-4.92c.46-.2.88-.26 1.28-.2zm-45.02.62c-1.06-.09-2 .28-2.83 1.11-.55.56-.9 1.16-1.05 1.82a3.7 3.7 0 0 0 .15 2.03c.26.69.72 1.36 1.37 2.01.99.99 2 1.52 3.06 1.6 1.06.1 2-.28 2.83-1.1.55-.56.9-1.17 1.05-1.82a3.5 3.5 0 0 0-.18-2.01 5.63 5.63 0 0 0-1.36-2.06 4.8 4.8 0 0 0-3.04-1.58zm-44.3 1.5c-1.05-.09-2 .28-2.82 1.1-.56.57-.9 1.17-1.05 1.83a3.7 3.7 0 0 0 .15 2.03c.26.69.72 1.36 1.37 2.01.99.99 2 1.52 3.06 1.6 1.06.1 2-.28 2.83-1.1.55-.56.9-1.17 1.04-1.82a3.5 3.5 0 0 0-.17-2.02 5.63 5.63 0 0 0-1.37-2.05 4.8 4.8 0 0 0-3.03-1.58zm-55.04 6.94c.36-.01.73.15 1.13.5.39.32.6.7.62 1.13.03.4-.12.81-.47 1.24l-.42.51a4.33 4.33 0 0 0-1.16 2.78c0 .89.4 1.74 1.22 2.55l4.43 4.43c.44.44.67.9.68 1.37 0 .46-.22.9-.66 1.35-.44.44-.9.67-1.37.68a2.04 2.04 0 0 1-1.37-.68l-8.09-8.1c-.44-.43-.66-.88-.66-1.34 0-.46.2-.9.62-1.3.41-.42.85-.63 1.3-.63.46 0 .91.23 1.35.67l.8.8a4.38 4.38 0 0 1-.43-2.36 6.28 6.28 0 0 1 1.54-3.13c.27-.33.58-.48.94-.47zm86.9.35c.49-.01.98.06 1.46.22.96.3 1.93.94 2.93 1.94l5.14 5.14c.44.44.67.89.7 1.35.02.44-.18.86-.57 1.26-.4.4-.83.6-1.29.6-.46-.03-.9-.27-1.35-.7l-.65-.66c.22.44.45.88.5 1.36a4.1 4.1 0 0 1-.25 1.92 5.17 5.17 0 0 1-1.22 1.82 6.6 6.6 0 0 1-2.46 1.6c-.89.3-1.75.36-2.6.2a4.26 4.26 0 0 1-2.17-1.2 3.7 3.7 0 0 1-1.22-2.42 5 5 0 0 1 .96-2.93c.7-1.1 1.8-2.4 3.32-3.91l.74-.75-.45-.45c-.7-.71-1.38-1.07-2-1.07-.63 0-1.32.37-2.06 1.11a9.5 9.5 0 0 0-2.18 3.51c-.15.4-.35.68-.62.84-.26.14-.53.18-.82.12-.3-.07-.55-.21-.77-.42a1.75 1.75 0 0 1-.45-.8c-.1-.32-.06-.67.11-1.04a13.75 13.75 0 0 1 2.8-4.3 8.3 8.3 0 0 1 3-2.06c.5-.18.98-.27 1.47-.28zm-44.3 1.5c.5-.02.98.06 1.47.21.95.3 1.93.95 2.93 1.95l5.14 5.14c.44.44.67.89.7 1.34.02.45-.18.87-.58 1.27-.4.4-.82.6-1.28.6-.46-.03-.9-.27-1.35-.71l-.65-.65c.22.44.45.88.5 1.36a4.1 4.1 0 0 1-.25 1.92 6.6 6.6 0 0 1-3.68 3.42c-.89.3-1.75.36-2.6.2a4.26 4.26 0 0 1-2.18-1.2 3.7 3.7 0 0 1-1.22-2.42 5 5 0 0 1 .97-2.93c.7-1.1 1.8-2.4 3.31-3.92l.75-.74-.45-.45c-.71-.72-1.38-1.07-2-1.07-.64 0-1.32.37-2.06 1.1a9.5 9.5 0 0 0-2.19 3.52c-.14.4-.34.68-.62.83-.25.15-.52.19-.8.13-.3-.07-.57-.21-.78-.43a1.75 1.75 0 0 1-.45-.79 1.5 1.5 0 0 1 .1-1.05 13.74 13.74 0 0 1 2.81-4.3 8.3 8.3 0 0 1 3-2.05 4.8 4.8 0 0 1 1.47-.29zm-77.84.28v7.17a3.72 3.72 0 0 0 2.18-2.56 3.5 3.5 0 0 0-.21-2.05c-.29-.75-.8-1.5-1.57-2.25-.13-.14-.26-.2-.4-.31zm166.97 2.4c.42-.02.78.13 1.1.44.3.3.44.67.44 1.1 0 .4-.15.74-.45 1.04l-4.55 4.56a1.6 1.6 0 0 1-1.1.5 1.54 1.54 0 0 1-1.06-.48 1.47 1.47 0 0 1-.48-1.07c.02-.41.18-.77.5-1.09l4.55-4.56c.3-.3.65-.45 1.05-.45zm-145.96.76c.47-.02.93.2 1.37.64l12.71 12.7c.44.45.67.9.68 1.38 0 .45-.2.9-.64 1.32-.43.43-.87.65-1.32.65a2.04 2.04 0 0 1-1.37-.69l-.55-.54c.27.75.39 1.53.23 2.36a5.71 5.71 0 0 1-1.65 2.97 6.26 6.26 0 0 1-3.08 1.76 6.28 6.28 0 0 1-3.5-.28 9.67 9.67 0 0 1-3.48-2.33 9.34 9.34 0 0 1-2.31-3.47 6.28 6.28 0 0 1-.28-3.49 6.26 6.26 0 0 1 1.76-3.08 5.65 5.65 0 0 1 2.9-1.62c.84-.18 1.6-.08 2.35.15l-5.12-5.12c-.45-.44-.67-.89-.67-1.35 0-.45.22-.9.64-1.32.43-.43.87-.64 1.33-.64zm104.64 1.44-.72.73c-.89.88-1.55 1.63-2 2.24a3.05 3.05 0 0 0-.68 1.59c-.01.41.17.8.54 1.17.47.47 1.02.7 1.64.67a2.77 2.77 0 0 0 1.82-.92 3.35 3.35 0 0 0 .88-3.37 3.8 3.8 0 0 0-1-1.64zm-44.29 1.5-.72.72c-.89.89-1.55 1.64-2 2.25a3.05 3.05 0 0 0-.68 1.58c-.01.42.16.81.54 1.18.47.47 1.02.7 1.64.66a2.77 2.77 0 0 0 1.82-.92 3.32 3.32 0 0 0 .88-3.36 3.8 3.8 0 0 0-1-1.64zm74.02 1.22c.37-.09.69-.07.96.06a1.62 1.62 0 0 1 .92 1.4c.01.26-.06.52-.22.76-.17.23-.44.4-.8.51-.5.13-.96.32-1.38.56a4.57 4.57 0 0 0-2.1 2.27 3.45 3.45 0 0 0 .2 3.14c.28.55.7 1.09 1.24 1.63a5.45 5.45 0 0 0 3.25 1.75 3.8 3.8 0 0 0 3.06-1.26 5.81 5.81 0 0 0 1.37-2.44c.11-.37.29-.62.51-.77.25-.15.51-.22.8-.19a1.55 1.55 0 0 1 1.28.98c.13.28.15.58.06.92a7.47 7.47 0 0 1-.87 2.12c-.4.66-.84 1.22-1.3 1.7a8.36 8.36 0 0 1-3.54 2.2 6.66 6.66 0 0 1-3.8-.05 8.6 8.6 0 0 1-3.58-2.24 9.13 9.13 0 0 1-1.88-2.61 6.53 6.53 0 0 1 .04-5.57 8.82 8.82 0 0 1 3.57-3.95 7.3 7.3 0 0 1 2.2-.92zm-44.19 2.65c.58.04 1.18.17 1.78.38a9.34 9.34 0 0 1 3.46 2.32 9.67 9.67 0 0 1 2.33 3.48c.43 1.2.53 2.36.28 3.5a6.16 6.16 0 0 1-1.75 3.07 5.8 5.8 0 0 1-2.93 1.65c-.82.16-1.58.06-2.3-.16l4.33 4.33c.44.44.66.9.64 1.37 0 .46-.21.9-.64 1.33-.43.43-.87.64-1.33.64-.45 0-.9-.22-1.34-.66l-11.97-11.96c-.44-.45-.66-.9-.66-1.35 0-.46.2-.9.62-1.3.43-.44.87-.65 1.33-.65.45 0 .9.22 1.35.66l.55.55a4.44 4.44 0 0 1-.21-2.34 5.85 5.85 0 0 1 1.67-3 6.1 6.1 0 0 1 4.79-1.86zm-44.3 1.5c.6.04 1.19.17 1.78.38a9.34 9.34 0 0 1 3.47 2.31 9.66 9.66 0 0 1 2.33 3.5c.43 1.19.52 2.35.28 3.48a6.16 6.16 0 0 1-1.75 3.08 5.8 5.8 0 0 1-2.94 1.65c-.81.16-1.57.06-2.29-.16l4.33 4.33c.44.44.65.9.64 1.37 0 .46-.21.9-.64 1.33-.43.42-.87.64-1.33.64-.46 0-.9-.22-1.35-.67l-11.96-11.96c-.44-.44-.66-.89-.66-1.34 0-.46.2-.9.62-1.31.43-.43.87-.64 1.33-.64.45 0 .9.22 1.34.66l.55.55a4.44 4.44 0 0 1-.2-2.35 5.85 5.85 0 0 1 1.67-3 6.1 6.1 0 0 1 4.79-1.85zm129.8 1.44a3.4 3.4 0 0 0-2.79 1.07 3.43 3.43 0 0 0-.81 3.85c.28.71.8 1.45 1.56 2.2 1.13 1.13 2.23 1.74 3.3 1.84.76.07 1.43-.18 2.05-.58v-6.5l-.04-.06c-1.14-1.14-2.23-1.75-3.28-1.82zm-171.55.37a3.4 3.4 0 0 0-2.78 1.07 3.43 3.43 0 0 0-.81 3.85c.28.71.8 1.45 1.56 2.2 1.12 1.13 2.22 1.74 3.3 1.84a3.4 3.4 0 0 0 2.77-1.07c.53-.53.87-1.12 1.01-1.77.14-.66.07-1.34-.21-2.06a6.63 6.63 0 0 0-1.57-2.24c-1.14-1.15-2.23-1.75-3.27-1.82zm85.32.26a3.4 3.4 0 0 0-2.78 1.07 3.43 3.43 0 0 0-.81 3.85c.28.72.8 1.45 1.56 2.2 1.13 1.13 2.23 1.75 3.3 1.85a3.4 3.4 0 0 0 2.78-1.07c.52-.53.86-1.12 1-1.78.15-.65.07-1.34-.21-2.05a6.63 6.63 0 0 0-1.56-2.25c-1.14-1.14-2.24-1.75-3.28-1.82zm-44.29 1.5a3.4 3.4 0 0 0-2.78 1.07 3.43 3.43 0 0 0-.81 3.85c.28.72.8 1.45 1.56 2.2 1.13 1.13 2.22 1.75 3.3 1.85a3.4 3.4 0 0 0 2.77-1.07c.53-.53.87-1.12 1.01-1.78a3.5 3.5 0 0 0-.21-2.05 6.63 6.63 0 0 0-1.57-2.25c-1.14-1.14-2.23-1.75-3.27-1.82zm28.33.47c.37 0 .7.14.98.43.29.28.44.62.45 1 .02.36-.14.7-.47 1.03l-1.52 1.52 14.92 14.91 1.52-1.51c.33-.33.67-.49 1.02-.48.39.02.72.17 1.01.45.29.29.43.62.43.99.03.37-.12.72-.45 1.05l-3.06 3.06c-.32.31-.7.47-1.14.49-.42 0-.8-.16-1.1-.47l-16.72-16.71c-.33-.33-.48-.7-.47-1.12.01-.44.18-.82.5-1.13l3.05-3.06c.33-.33.68-.48 1.05-.45zm-86.33.48c.47-.01.93.2 1.37.65l12.71 12.7c.44.45.67.9.69 1.38 0 .45-.22.9-.65 1.32-.42.43-.87.64-1.32.64a2.04 2.04 0 0 1-1.37-.68l-.54-.54c.26.75.38 1.53.22 2.36a5.7 5.7 0 0 1-1.65 2.97 6.26 6.26 0 0 1-3.08 1.76 6.28 6.28 0 0 1-3.49-.28 9.66 9.66 0 0 1-3.49-2.33 9.34 9.34 0 0 1-2.3-3.47 6.28 6.28 0 0 1-.29-3.49 6.26 6.26 0 0 1 1.76-3.08 5.65 5.65 0 0 1 2.9-1.62c.84-.18 1.6-.08 2.35.15l-5.12-5.12c-.45-.44-.67-.9-.67-1.35 0-.45.22-.9.65-1.32.42-.43.87-.65 1.32-.65zm40.37 1.92c.34-.14.7-.14 1.1.02.36.14.68.48.93 1.03a37.67 37.67 0 0 0 1.84 3.55 33.94 33.94 0 0 0 2.12 3.1 33.45 33.45 0 0 0 5.42 5.37c.98.76 2.02 1.46 3.12 2.1a57.1 57.1 0 0 0 3.5 1.88c.55.26.9.57 1.03.94.16.39.17.75.03 1.1-.13.32-.37.59-.71.79-.31.2-.68.25-1.1.15a21.88 21.88 0 0 1-6.33-2.49 27.59 27.59 0 0 1-8.17-7.53 23.21 23.21 0 0 1-3.72-8.21c-.1-.42-.05-.78.15-1.1.2-.34.46-.57.79-.7zm95.89 1.62c.62 0 1.25.1 1.87.28a8.43 8.43 0 0 1 3.55 2.23 8.91 8.91 0 0 1 1.89 2.65c.43.91.65 1.85.66 2.8 0 .94-.2 1.87-.6 2.78a8.94 8.94 0 0 1-1.84 2.57 8.12 8.12 0 0 1-3.49 2.16 6.56 6.56 0 0 1-3.74-.02 8.6 8.6 0 0 1-3.57-2.24 9.12 9.12 0 0 1-1.89-2.61 6.82 6.82 0 0 1-.02-5.59c.4-.91 1-1.78 1.82-2.59a8.12 8.12 0 0 1 3.49-2.16 6.6 6.6 0 0 1 1.87-.26zm-.54 3.38a3.4 3.4 0 0 0-2.79 1.07 3.43 3.43 0 0 0-.81 3.85c.29.72.8 1.45 1.56 2.21 1.13 1.13 2.23 1.74 3.3 1.84a3.4 3.4 0 0 0 2.78-1.07 3.42 3.42 0 0 0 .8-3.83c-.3-.74-.82-1.5-1.57-2.25-1.14-1.14-2.23-1.74-3.27-1.82zm35.55 3.14c.37-.09.69-.07.96.06a1.62 1.62 0 0 1 .92 1.4c.02.26-.06.52-.21.76-.17.23-.44.4-.82.52-.5.12-.95.3-1.36.55a4.57 4.57 0 0 0-2.1 2.27 3.45 3.45 0 0 0 .19 3.15 7 7 0 0 0 1.24 1.62 5.45 5.45 0 0 0 3.25 1.76 3.8 3.8 0 0 0 3.06-1.27 5.81 5.81 0 0 0 1.37-2.44c.12-.37.29-.62.52-.77.24-.15.5-.22.79-.19a1.55 1.55 0 0 1 1.28.98c.13.28.15.58.07.93a7.47 7.47 0 0 1-.88 2.11c-.4.66-.84 1.22-1.3 1.7a8.36 8.36 0 0 1-3.54 2.2 6.66 6.66 0 0 1-3.8-.04 8.6 8.6 0 0 1-3.58-2.25 9.13 9.13 0 0 1-1.88-2.61 6.53 6.53 0 0 1 .04-5.56 8.82 8.82 0 0 1 3.57-3.96 7.3 7.3 0 0 1 2.2-.92zm-167.14.07a3.4 3.4 0 0 0-2.78 1.07 3.43 3.43 0 0 0-.81 3.85c.28.71.8 1.44 1.56 2.2 1.13 1.13 2.22 1.74 3.3 1.84a3.4 3.4 0 0 0 2.78-1.07c.52-.53.86-1.12 1-1.78.14-.65.07-1.34-.21-2.05a6.7 6.7 0 0 0-1.56-2.25c-1.15-1.14-2.24-1.74-3.28-1.81zm113.35.77c.48-.01.93.2 1.37.65l10 9.99c.65.65 1.27 1 1.86 1.05.6.03 1.15-.22 1.67-.73l.32-.32.25-.34c.18-.23.37-.31.58-.24.2.06.5.3.92.7a2 2 0 0 1 .62 1.06c.06.34-.05.7-.34 1.07a7.38 7.38 0 0 1-.86.98c-1.18 1.18-2.4 1.74-3.68 1.67-1.28-.09-2.58-.79-3.89-2.1l-10.12-10.12c-.44-.44-.66-.9-.66-1.35 0-.45.21-.9.64-1.32.43-.43.87-.65 1.32-.65zm-34.96 2.32c.33-.1.62-.1.88.02.27.1.48.27.64.51.14.23.23.49.26.77.01.27-.06.53-.22.77-.15.21-.41.39-.77.51a8.03 8.03 0 0 0-3.07 1.8c-.7.7-1.1 1.34-1.2 1.93-.1.57.06 1.05.46 1.45.3.3.65.45 1.05.45s.84-.17 1.33-.51l2.55-1.74a5.64 5.64 0 0 1 3.03-1.15 3.4 3.4 0 0 1 2.57 1.11 4.09 4.09 0 0 1 1.24 3.68 7.72 7.72 0 0 1-2.37 4.13c-.62.62-1.33 1.2-2.14 1.76a8.1 8.1 0 0 1-2.5 1.17c-.38.09-.7.09-.99 0a1.73 1.73 0 0 1-.68-.47 1.48 1.48 0 0 1-.3-.72 1.2 1.2 0 0 1 .19-.75c.16-.25.4-.42.75-.54.84-.3 1.57-.64 2.18-1.03.6-.4 1.14-.84 1.63-1.32a3.8 3.8 0 0 0 1.17-1.86c.1-.59-.04-1.07-.42-1.46-.33-.33-.7-.46-1.1-.4-.4.02-.86.22-1.39.57l-2.54 1.74a5.4 5.4 0 0 1-3 1.07 3.69 3.69 0 0 1-2.55-1.18 4.1 4.1 0 0 1-1.21-2.33c-.12-.89.02-1.8.42-2.74a8.67 8.67 0 0 1 1.9-2.72 9.73 9.73 0 0 1 4.2-2.52zm28.14 4.51c.47-.01.93.2 1.37.64l10 10c.65.65 1.27 1 1.85 1.04.6.03 1.16-.21 1.67-.72l.32-.33c.09-.1.17-.22.26-.34.17-.23.36-.3.58-.23.2.05.5.29.92.7a2 2 0 0 1 .62 1.05c.05.34-.06.7-.35 1.07l-.4.5-.45.49c-1.18 1.18-2.41 1.74-3.68 1.66-1.28-.08-2.58-.78-3.9-2.1l-10.12-10.11c-.44-.45-.66-.9-.66-1.35 0-.46.21-.9.64-1.33.43-.43.87-.64 1.33-.64zm-77.18 3.49c.33-.02.64.13.94.43.3.3.45.62.45.96 0 .31-.16.63-.47.94l-8.86 8.86c-.3.3-.61.46-.94.47-.34 0-.66-.15-.96-.45-.3-.3-.45-.61-.43-.94 0-.34.15-.66.45-.96l8.86-8.86c.31-.32.63-.47.96-.45zm126.84 1.05c.62 0 1.25.1 1.88.28a8.43 8.43 0 0 1 3.55 2.23 8.91 8.91 0 0 1 1.88 2.65c.43.91.65 1.85.66 2.8 0 .95-.2 1.87-.6 2.79a8.94 8.94 0 0 1-1.84 2.56 8.12 8.12 0 0 1-3.48 2.16 6.56 6.56 0 0 1-3.75-.02 8.6 8.6 0 0 1-3.57-2.24 9.13 9.13 0 0 1-1.88-2.61 6.83 6.83 0 0 1-.03-5.59 8.69 8.69 0 0 1 1.82-2.59 8.12 8.12 0 0 1 3.5-2.16 6.59 6.59 0 0 1 1.86-.26zm-168.49.03v3.5c.44-.48.64-.85 1.18-1.38l.74-.75-.45-.45c-.51-.52-1-.78-1.47-.92zm80.34 2.43a6.2 6.2 0 0 1 2.63.7 9.18 9.18 0 0 1 2.52 1.84 1 1 0 0 1 .32.88c-.04.3-.23.61-.55.94l-6.42 6.42c.9.71 1.8 1.19 2.67 1.22 1.13.02 2.23-.51 3.3-1.58a9.6 9.6 0 0 0 1.11-1.37c.37-.57.65-1.18.83-1.82.13-.47.33-.8.58-1 .25-.22.5-.32.77-.3.29 0 .55.09.8.27.22.17.39.42.49.75.11.32.12.68.02 1.1a8.12 8.12 0 0 1-1.03 2.43c-.5.79-1.03 1.46-1.58 2.01a9.32 9.32 0 0 1-3.73 2.4c-1.3.41-2.58.45-3.87.1a8.21 8.21 0 0 1-3.57-2.2 8.3 8.3 0 0 1-2.18-3.5 7.03 7.03 0 0 1-.05-3.77c.33-1.27 1-2.41 2.01-3.43a7.29 7.29 0 0 1 2.36-1.62c.84-.36 1.7-.52 2.57-.47zm-76.88.48-.72.73c-.89.88-1.55 1.63-2 2.24a3.05 3.05 0 0 0-.68 1.59c-.01.41.17.8.54 1.17.47.48 1.02.7 1.65.67a2.77 2.77 0 0 0 1.81-.92c.47-.47.78-1 .92-1.56.15-.6.13-1.2-.04-1.8a3.8 3.8 0 0 0-1-1.65zm42.45.27c.33-.02.64.12.94.42.31.32.46.64.45.97 0 .31-.16.62-.47.94l-8.86 8.86c-.3.3-.61.45-.94.47-.34 0-.67-.15-.97-.45-.3-.3-.44-.62-.42-.94.01-.33.17-.65.47-.94l8.86-8.86c.31-.32.62-.47.94-.47zm122.04.18a3.4 3.4 0 0 0-2.78 1.07 3.43 3.43 0 0 0-.81 3.85c.28.71.8 1.44 1.55 2.2 1.13 1.13 2.23 1.74 3.3 1.84a3.4 3.4 0 0 0 2.78-1.07c.53-.53.86-1.12 1-1.77.15-.66.08-1.35-.2-2.06a6.89 6.89 0 0 0-1.57-2.25c-1.14-1.14-2.23-1.74-3.27-1.81zm-87.99 1.83a3.32 3.32 0 0 0-2.62 1.05 3.8 3.8 0 0 0-1.11 1.96c-.15.69-.07 1.4.21 2.14.17.44.57.86.9 1.29l5.12-5.12a5.65 5.65 0 0 0-1.57-1.09c-.31-.13-.62-.2-.93-.23zm38.03 1.68c.49 0 .97.06 1.46.22.96.3 1.93.95 2.93 1.95l5.14 5.13c.44.45.67.9.7 1.35.02.44-.18.86-.58 1.26-.4.4-.82.6-1.28.6-.46-.02-.9-.26-1.35-.7l-.65-.66c.22.45.45.88.5 1.36a4.1 4.1 0 0 1-.25 1.93 6.6 6.6 0 0 1-3.68 3.42c-.89.29-1.75.35-2.6.2a4.26 4.26 0 0 1-2.18-1.2 3.7 3.7 0 0 1-1.21-2.42 5 5 0 0 1 .96-2.93c.7-1.1 1.8-2.4 3.31-3.92l.75-.75-.45-.45c-.71-.7-1.38-1.07-2-1.07-.64 0-1.32.37-2.06 1.12a9.5 9.5 0 0 0-2.18 3.5c-.15.4-.35.68-.62.84-.26.14-.53.19-.82.13-.3-.07-.55-.22-.77-.43a1.75 1.75 0 0 1-.45-.8c-.1-.32-.06-.67.1-1.04a13.74 13.74 0 0 1 2.81-4.3 8.3 8.3 0 0 1 3-2.05c.49-.18.98-.28 1.47-.29zm31.73.47c.47-.02.92.2 1.37.64l9.99 9.99c.66.66 1.28 1 1.86 1.05.6.03 1.16-.22 1.67-.73l.32-.32.26-.34c.17-.23.36-.31.58-.24.2.06.5.3.91.7a2 2 0 0 1 .63 1.06c.05.34-.06.7-.35 1.07l-.4.49-.45.49c-1.19 1.18-2.41 1.74-3.68 1.67-1.29-.09-2.59-.78-3.9-2.1l-10.12-10.12c-.44-.44-.66-.89-.66-1.35 0-.45.21-.9.64-1.32.43-.43.87-.64 1.33-.64zm-81.7 5.36c.45 0 .9.22 1.34.66l8.24 8.24c1.7 1.7 2.52 3.42 2.48 5.18-.04 1.75-.92 3.48-2.63 5.2-.77.77-1.6 1.44-2.46 2.03-.86.57-1.73 1-2.61 1.28-.42.13-.77.15-1.07.05-.29-.12-.52-.3-.71-.54a1.54 1.54 0 0 1-.09-1.63c.15-.25.38-.43.71-.53a8.4 8.4 0 0 0 2.38-1.18c.67-.47 1.2-.9 1.6-1.3.96-.96 1.43-1.9 1.43-2.85.03-.94-.41-1.87-1.32-2.78l-1.55-1.55c.3.8.42 1.63.22 2.53a5.89 5.89 0 0 1-1.65 2.94 6.53 6.53 0 0 1-3.1 1.81c-1.14.26-2.3.19-3.47-.2a8.69 8.69 0 0 1-3.31-2.17 9.25 9.25 0 0 1-1.8-2.44 7.11 7.11 0 0 1-.7-2.59 5.9 5.9 0 0 1 .42-2.52 6.7 6.7 0 0 1 1.54-2.31 5.7 5.7 0 0 1 2.98-1.65 4.17 4.17 0 0 1 2.37.19l-.55-.56c-.45-.44-.67-.89-.67-1.34.02-.47.23-.92.64-1.33.43-.43.87-.64 1.33-.64zm53.48.55-.72.73c-.89.89-1.55 1.63-2 2.25a3.05 3.05 0 0 0-.68 1.58c-.01.42.17.8.54 1.18a2.1 2.1 0 0 0 1.64.66 2.77 2.77 0 0 0 1.82-.92 3.32 3.32 0 0 0 .88-3.36 3.8 3.8 0 0 0-1-1.65zm21.4.91c.46-.01.92.2 1.36.64l10 10c.65.65 1.27 1 1.86 1.04.6.03 1.15-.21 1.66-.72l.33-.32.25-.35c.17-.23.36-.3.58-.23.2.05.5.29.92.7a2 2 0 0 1 .62 1.05c.06.34-.06.7-.34 1.07l-.41.5-.45.49c-1.18 1.18-2.4 1.74-3.68 1.67-1.28-.09-2.58-.79-3.9-2.1l-10.11-10.12c-.45-.44-.67-.9-.67-1.35 0-.46.22-.9.65-1.33.42-.42.87-.64 1.32-.64zm-121.5 2.22c.4-.02.73.12 1.01.4.3.28.48.7.54 1.27l.62 6.1 6.61.66c.56.04.97.21 1.24.51.27.3.4.65.37 1.05a1.6 1.6 0 0 1-.52 1.07c-.31.31-.63.52-.96.62-.33.1-.71.13-1.16.09l-5.27-.61.63 5.25c.04.41.02.8-.06 1.13-.1.33-.32.66-.64.99-.32.31-.67.49-1.05.53a1.4 1.4 0 0 1-1.03-.38c-.29-.29-.46-.7-.54-1.26l-.69-6.6-6.11-.64c-.57-.05-1-.23-1.26-.53a1.3 1.3 0 0 1-.37-1c.03-.4.2-.76.52-1.08.33-.33.65-.54.98-.64.34-.11.73-.14 1.16-.08l4.79.59-.58-4.81c-.04-.44-.01-.83.09-1.16.1-.32.3-.64.62-.96.33-.33.68-.5 1.07-.51zm76.7.81c1.26-.1 2.4.36 3.42 1.37a5.34 5.34 0 0 1 1.58 4.28c-.02.73-.23 1.63-.46 2.55l5.98.19c-.1-.3-.18-.61-.32-.92-.24-.53-.53-1.06-.85-1.58-.33-.56-.7-1.1-1.12-1.63-.3-.41-.44-.8-.42-1.16 0-.37.17-.72.5-1.07.38-.37.76-.54 1.16-.51.39.01.75.24 1.1.66a16.68 16.68 0 0 1 2.65 4.58c.2.54.31 1.08.44 1.61l3.58.02c.54 0 .95.13 1.22.4.27.28.4.61.37 1.01-.03.37-.23.74-.58 1.1-.32.3-.63.5-.94.6-.33.06-.74.1-1.22.1l-2.14-.05a9.75 9.75 0 0 1-.6 3.17 8.98 8.98 0 0 1-2.1 3.25 9.78 9.78 0 0 1-3.3 2.27c-1.12.44-2.2.58-3.23.4a5.28 5.28 0 0 1-2.76-1.51 6.4 6.4 0 0 1-1.15-1.54 6.16 6.16 0 0 1-.58-1.78c-.1-.64-.12-1.3-.06-1.99.05-.71.18-1.45.38-2.22l.07-.25a10.4 10.4 0 0 1-2.72-.35 5.73 5.73 0 0 1-2.16-1.35 4.88 4.88 0 0 1-1.37-2.4c-.2-.88-.14-1.79.19-2.71.33-.93.91-1.81 1.76-2.66a5.76 5.76 0 0 1 3.68-1.88zm-30.6 1.03c-1.06-.09-2 .28-2.83 1.11-.55.56-.9 1.16-1.05 1.82a3.7 3.7 0 0 0 .15 2.03c.26.69.72 1.36 1.37 2.01.99.99 2 1.52 3.06 1.6 1.06.1 2-.28 2.83-1.1.55-.56.9-1.17 1.05-1.82a3.5 3.5 0 0 0-.18-2.01 5.63 5.63 0 0 0-1.36-2.06 4.8 4.8 0 0 0-3.04-1.58zm30.34 2a2.3 2.3 0 0 0-1.52.76 2.44 2.44 0 0 0-.8 1.69c-.02.6.21 1.15.71 1.65a3.25 3.25 0 0 0 2.12.96c.35.04.87.07 1.37.1.15-.65.31-1.3.36-1.75a4.1 4.1 0 0 0-.04-1.58 2.5 2.5 0 0 0-.66-1.14c-.49-.48-1-.7-1.54-.68zm95.55.49a3.4 3.4 0 0 0-2.78 1.07 3.43 3.43 0 0 0-.81 3.85c.28.71.8 1.45 1.56 2.2 1.12 1.13 2.22 1.74 3.3 1.84a3.4 3.4 0 0 0 2.77-1.07 3.42 3.42 0 0 0 .8-3.83 6.76 6.76 0 0 0-1.57-2.24c-1.14-1.14-2.23-1.75-3.27-1.82zm-15.96 1.97c.37 0 .7.14.98.43.29.28.44.62.45 1 .02.36-.14.7-.47 1.03l-1.52 1.52 14.91 14.91 1.52-1.52c.33-.33.67-.48 1.03-.47.39.02.72.17 1 .45.3.29.43.61.43.98.03.38-.12.73-.45 1.05l-3.06 3.06c-.3.32-.69.48-1.13.5-.43 0-.8-.16-1.11-.48l-16.71-16.7c-.33-.33-.49-.7-.47-1.12.01-.44.17-.82.49-1.13l3.06-3.06c.33-.33.68-.48 1.05-.45zm-35.38 2.92c.49 0 .98.07 1.46.22.96.3 1.93.95 2.93 1.95l5.14 5.14c.44.44.68.89.7 1.34.02.45-.17.87-.57 1.27-.4.4-.83.6-1.29.6-.45-.03-.9-.27-1.34-.71l-.66-.66c.22.45.45.89.5 1.36a4.1 4.1 0 0 1-.25 1.93 6.6 6.6 0 0 1-3.68 3.42c-.89.29-1.75.35-2.59.2a4.26 4.26 0 0 1-2.18-1.2 3.7 3.7 0 0 1-1.22-2.42 5 5 0 0 1 .96-2.93c.7-1.1 1.8-2.4 3.32-3.92l.75-.75-.45-.45c-.72-.7-1.39-1.06-2.01-1.06-.63 0-1.32.37-2.06 1.1a9.5 9.5 0 0 0-2.18 3.52c-.14.4-.35.67-.62.83-.26.14-.53.19-.82.13-.3-.07-.55-.21-.77-.43a1.75 1.75 0 0 1-.45-.79c-.1-.33-.06-.68.11-1.05a13.74 13.74 0 0 1 2.8-4.3 8.3 8.3 0 0 1 3-2.05c.5-.18.98-.28 1.47-.29zm-86.99 1.4c.49 0 .98.07 1.46.23.96.3 1.93.94 2.93 1.94l5.14 5.14c.44.44.67.89.7 1.35.02.44-.18.86-.57 1.26-.4.4-.83.6-1.29.6-.46-.03-.9-.27-1.35-.7l-.65-.66c.22.44.45.88.5 1.36a4.1 4.1 0 0 1-.25 1.92 6.6 6.6 0 0 1-3.68 3.42c-.89.3-1.75.36-2.6.2a4.26 4.26 0 0 1-2.17-1.2 3.7 3.7 0 0 1-1.22-2.42 5 5 0 0 1 .96-2.93c.7-1.1 1.8-2.4 3.31-3.91l.75-.75-.45-.45c-.7-.71-1.38-1.07-2-1.07-.63 0-1.32.37-2.06 1.11a9.5 9.5 0 0 0-2.18 3.51c-.15.4-.35.68-.62.84-.26.14-.53.18-.82.12-.3-.07-.55-.21-.77-.42a1.75 1.75 0 0 1-.45-.8c-.1-.32-.06-.67.11-1.04a13.74 13.74 0 0 1 2.8-4.3 8.3 8.3 0 0 1 3-2.06c.5-.18.98-.27 1.47-.28zm30.82.87c.34-.14.7-.14 1.09.02.37.14.68.49.94 1.03a37.63 37.63 0 0 0 1.84 3.55 33.92 33.92 0 0 0 2.12 3.1 33.39 33.39 0 0 0 5.41 5.37c.99.76 2.03 1.46 3.13 2.1 1.1.64 2.26 1.27 3.5 1.88.55.26.89.57 1.03.94.16.39.17.75.02 1.1-.12.32-.36.59-.7.79-.32.2-.68.25-1.1.15a21.88 21.88 0 0 1-6.33-2.49 27.6 27.6 0 0 1-8.17-7.53 23.21 23.21 0 0 1-3.72-8.21c-.1-.42-.05-.78.15-1.1.2-.34.46-.57.79-.7zm15.83.76c-.2.76-.3 1.42-.32 2-.03.57.05 1.09.24 1.56.18.44.47.86.87 1.26.67.67 1.44.97 2.3.88a4.38 4.38 0 0 0 2.58-1.43 5.8 5.8 0 0 0 1.44-2.2c.2-.6.19-1.27.2-1.94zm-91.36 1a6.2 6.2 0 0 1 2.63.7 9.18 9.18 0 0 1 2.52 1.84 1 1 0 0 1 .32.88c-.04.3-.22.61-.55.94l-6.42 6.41c.9.72 1.8 1.2 2.67 1.23 1.13.01 2.23-.52 3.3-1.59.37-.37.74-.82 1.11-1.37.37-.57.65-1.17.83-1.81.13-.48.33-.81.58-1.01.25-.21.5-.31.77-.3a1.34 1.34 0 0 1 1.29 1.03c.11.31.12.67.02 1.09a8.12 8.12 0 0 1-1.03 2.44c-.5.78-1.03 1.45-1.58 2a9.32 9.32 0 0 1-3.73 2.4c-1.3.42-2.59.45-3.87.11a8.21 8.21 0 0 1-3.57-2.2 8.3 8.3 0 0 1-2.18-3.51 7.04 7.04 0 0 1-.05-3.77c.33-1.27 1-2.4 2.01-3.42a7.3 7.3 0 0 1 2.36-1.63c.84-.35 1.7-.5 2.56-.47zm135.22 2.35-.73.73c-.89.89-1.55 1.64-2 2.25a3.06 3.06 0 0 0-.68 1.58c-.01.42.17.8.54 1.18.47.47 1.02.7 1.65.66a2.77 2.77 0 0 0 1.82-.92c.47-.47.77-.99.92-1.56.14-.6.12-1.2-.05-1.8a3.8 3.8 0 0 0-1-1.64zm-136.5.47a3.3 3.3 0 0 0-1.72.98c-.6.6-.97 1.26-1.11 1.97-.15.69-.07 1.4.21 2.14.17.43.57.86.9 1.29l5.12-5.13a5.65 5.65 0 0 0-1.57-1.08 2.95 2.95 0 0 0-1.84-.17zm49.5.94-.72.73c-.89.88-1.55 1.63-2 2.24a3.06 3.06 0 0 0-.68 1.59c-.01.41.17.8.54 1.17.47.47 1.02.7 1.64.67a2.77 2.77 0 0 0 1.82-.92 3.35 3.35 0 0 0 .88-3.37 3.8 3.8 0 0 0-1-1.64zm115.05 2.98c.33-.1.62-.1.88.02.27.1.48.27.64.52.14.22.23.48.25.77.02.27-.05.52-.21.77-.16.21-.41.38-.77.51a7.87 7.87 0 0 0-3.08 1.8c-.7.7-1.1 1.34-1.2 1.92-.08.57.07 1.06.47 1.46.3.3.65.45 1.05.45s.84-.17 1.33-.52l2.54-1.73a5.64 5.64 0 0 1 3.04-1.15 3.4 3.4 0 0 1 2.57 1.1 4.09 4.09 0 0 1 1.24 3.69 7.72 7.72 0 0 1-2.38 4.13c-.6.61-1.32 1.2-2.14 1.75-.8.56-1.64.95-2.5 1.18-.37.09-.7.09-.98 0a1.73 1.73 0 0 1-.69-.47 1.48 1.48 0 0 1-.3-.73c-.01-.27.05-.52.2-.75.15-.24.4-.42.74-.53.85-.3 1.57-.64 2.19-1.03.6-.4 1.14-.84 1.62-1.33a3.8 3.8 0 0 0 1.18-1.86c.1-.58-.04-1.07-.43-1.45-.33-.33-.69-.47-1.09-.4-.4.02-.86.21-1.39.57l-2.55 1.73a5.41 5.41 0 0 1-3 1.07 3.69 3.69 0 0 1-2.54-1.17 4.1 4.1 0 0 1-1.22-2.34c-.11-.88.03-1.8.43-2.74a8.67 8.67 0 0 1 1.9-2.71 9.73 9.73 0 0 1 4.2-2.53zm-129.51 2.39c.58.04 1.18.17 1.78.38a9.34 9.34 0 0 1 3.46 2.32 9.66 9.66 0 0 1 2.33 3.48c.43 1.2.53 2.36.28 3.5a6.16 6.16 0 0 1-1.75 3.07 5.8 5.8 0 0 1-2.93 1.65c-.82.16-1.58.06-2.3-.16l4.33 4.33c.44.44.66.9.64 1.37 0 .46-.21.9-.64 1.33-.43.43-.87.64-1.33.64-.45 0-.9-.22-1.35-.66l-11.96-11.96c-.44-.45-.66-.9-.66-1.35 0-.46.2-.9.62-1.3.43-.44.87-.65 1.33-.65.45 0 .9.22 1.35.66l.55.55a4.44 4.44 0 0 1-.21-2.34 5.85 5.85 0 0 1 1.67-3 6.1 6.1 0 0 1 4.79-1.86zm39.78.68c.34-.02.67.08.98.3.3.22.54.55.7 1l6.68 17.08c.22.59.29 1.06.22 1.42-.07.35-.28.7-.62 1.05-.32.3-.66.48-1.03.5a1.3 1.3 0 0 1-1-.27c-.3-.24-.54-.58-.71-1l-1.48-3.9-12.09-4.8a2.3 2.3 0 0 1-1-.74 1.34 1.34 0 0 1-.26-1.03c.06-.4.28-.79.66-1.18.33-.32.67-.5 1.03-.55.34-.06.8.04 1.37.3l8.99 3.84-3.81-9.06a2.4 2.4 0 0 1-.26-1.37 2 2 0 0 1 .62-1.1 1.5 1.5 0 0 1 1-.49zm42.05 1.08c.36-.01.7.15 1.03.47.32.32.47.66.47 1.03-.01.36-.19.7-.53 1.05l-2.27 2.27 4.4 4.4c.7.69 1.36 1.05 2 1.1.64.04 1.3-.28 1.97-.95.24-.24.43-.47.57-.7.15-.23.28-.42.41-.58a.7.7 0 0 1 .6-.26c.23 0 .53.19.9.56.28.29.49.6.62.92.13.3.11.61-.04.94-.13.24-.32.54-.58.88a7.33 7.33 0 0 1-3.5 2.74c-.94.3-1.85.3-2.75 0a7.27 7.27 0 0 1-2.72-1.82l-4.55-4.56-1.12 1.11c-.34.35-.69.52-1.05.54-.37 0-.7-.16-1.02-.47-.33-.33-.49-.67-.47-1.03.01-.36.19-.7.53-1.05l1.11-1.11-1.94-1.95c-.44-.44-.67-.89-.67-1.34a2 2 0 0 1 .67-1.35c.43-.43.87-.64 1.32-.64.46 0 .9.22 1.35.66l1.95 1.95 2.27-2.27c.34-.35.69-.52 1.05-.54zm-82.56 1.81a3.4 3.4 0 0 0-2.78 1.07 3.43 3.43 0 0 0-.81 3.85c.28.72.8 1.45 1.56 2.2 1.13 1.13 2.22 1.75 3.3 1.85a3.4 3.4 0 0 0 2.78-1.07c.52-.53.86-1.12 1-1.78.14-.65.07-1.34-.21-2.05a6.6 6.6 0 0 0-1.56-2.25c-1.14-1.14-2.24-1.75-3.28-1.82zm-43.38 4.3v7.58a3.55 3.55 0 0 0 1.55-.9 3.42 3.42 0 0 0 .8-3.83 6.63 6.63 0 0 0-1.57-2.25c-.26-.26-.52-.4-.78-.6zm163.26 1.25a6.2 6.2 0 0 1 2.63.71 9.18 9.18 0 0 1 2.53 1.84 1 1 0 0 1 .32.88c-.04.3-.23.61-.56.94l-6.41 6.41c.9.72 1.8 1.2 2.67 1.23 1.13.01 2.22-.52 3.3-1.59a9.6 9.6 0 0 0 1.1-1.37c.38-.57.66-1.17.84-1.81.13-.47.32-.81.58-1.01.24-.21.5-.31.77-.3.28 0 .55.1.8.28.22.17.38.42.48.75.12.31.12.68.02 1.09a8.12 8.12 0 0 1-1.02 2.44c-.5.78-1.03 1.45-1.59 2.01a9.32 9.32 0 0 1-3.72 2.4c-1.3.41-2.59.45-3.87.1a8.21 8.21 0 0 1-3.58-2.2 8.3 8.3 0 0 1-2.18-3.51 7.04 7.04 0 0 1-.04-3.77c.33-1.27 1-2.4 2.01-3.42a7.29 7.29 0 0 1 2.35-1.63 6.1 6.1 0 0 1 2.57-.47zm-45.55 1.6c.37-.08.69-.06.96.07a1.62 1.62 0 0 1 .92 1.4c.01.26-.06.52-.21.76-.17.23-.45.4-.82.52-.5.13-.95.31-1.37.55a4.57 4.57 0 0 0-2.1 2.27 3.46 3.46 0 0 0 .2 3.15c.28.54.7 1.08 1.24 1.62a5.45 5.45 0 0 0 3.25 1.76 3.8 3.8 0 0 0 3.06-1.27 5.81 5.81 0 0 0 1.37-2.44c.12-.37.29-.62.52-.77.24-.15.5-.22.79-.19a1.55 1.55 0 0 1 1.28.98c.13.28.15.58.07.93a7.47 7.47 0 0 1-.88 2.12c-.4.65-.84 1.21-1.3 1.69a8.36 8.36 0 0 1-3.54 2.2 6.66 6.66 0 0 1-3.8-.04 8.6 8.6 0 0 1-3.58-2.25 9.13 9.13 0 0 1-1.88-2.61 6.52 6.52 0 0 1 .04-5.56 8.82 8.82 0 0 1 3.57-3.96 7.3 7.3 0 0 1 2.2-.92zm45.18 1.16a3.32 3.32 0 0 0-2.62 1.05c-.6.6-.97 1.26-1.12 1.97-.14.69-.07 1.4.22 2.14.17.43.57.86.9 1.29l5.12-5.13a5.65 5.65 0 0 0-1.57-1.08c-.32-.13-.63-.2-.93-.24zm-89.94.08c.36-.01.7.14 1.03.47.31.31.47.66.47 1.03-.01.36-.2.7-.53 1.05l-2.27 2.27 4.4 4.4c.7.69 1.35 1.05 2 1.1.64.04 1.3-.28 1.96-.95.25-.24.44-.48.58-.7.14-.23.28-.42.4-.58a.7.7 0 0 1 .6-.26c.24 0 .54.19.9.56.3.28.5.59.63.92.13.3.11.61-.05.94-.12.24-.32.53-.57.88a7.33 7.33 0 0 1-3.5 2.74c-.94.3-1.85.3-2.75 0a7.27 7.27 0 0 1-2.72-1.82l-4.56-4.56-1.1 1.11c-.35.34-.7.52-1.06.54-.37 0-.71-.16-1.02-.47-.33-.33-.49-.67-.48-1.03.02-.36.2-.7.54-1.05l1.11-1.11-1.94-1.95c-.45-.44-.67-.89-.67-1.35.02-.47.24-.92.67-1.35.42-.42.87-.64 1.32-.64.46 0 .9.22 1.35.67l1.95 1.94 2.27-2.26c.34-.35.69-.53 1.04-.54zm-38.7 2.35a2.18 2.18 0 0 1 1.67 1.69c.07.39 0 .82-.18 1.29l-4.94 12.17c-.14.35-.34.59-.6.73-.24.13-.5.17-.77.13a1.4 1.4 0 0 1-.7-.32 1.38 1.38 0 0 1-.36-1.6l4.49-11-11 4.49c-.33.13-.63.16-.9.08a1.47 1.47 0 0 1-1.05-1.17c-.04-.27 0-.53.13-.77.14-.26.38-.46.73-.6l12.2-4.92c.46-.2.88-.26 1.28-.2zm116.69 5.08c.45 0 .9.23 1.35.67l8.23 8.24c1.7 1.7 2.53 3.42 2.49 5.17-.05 1.76-.92 3.5-2.64 5.2-.77.77-1.59 1.45-2.46 2.04-.85.57-1.72 1-2.6 1.28-.42.13-.78.14-1.08.04a1.6 1.6 0 0 1-.7-.53c-.16-.25-.25-.5-.28-.8-.02-.3.05-.57.2-.83.13-.26.37-.43.7-.53a8.74 8.74 0 0 0 2.37-1.18c.67-.47 1.2-.9 1.6-1.3.96-.96 1.44-1.91 1.44-2.85.03-.94-.41-1.87-1.33-2.78l-1.54-1.55c.3.8.41 1.62.22 2.53a5.89 5.89 0 0 1-1.65 2.93 6.53 6.53 0 0 1-3.1 1.82c-1.14.26-2.3.19-3.47-.21a8.69 8.69 0 0 1-3.32-2.16 9.25 9.25 0 0 1-1.8-2.44 7.12 7.12 0 0 1-.7-2.6 5.9 5.9 0 0 1 .43-2.52 6.7 6.7 0 0 1 1.54-2.3 5.7 5.7 0 0 1 2.97-1.66 4.16 4.16 0 0 1 2.37.2l-.55-.56c-.44-.44-.66-.9-.66-1.35.01-.47.23-.91.64-1.32.43-.43.87-.65 1.33-.65zm31.54 1.76c.35-.1.71-.09 1.07.04.34.12.65.34.92.67l3.55 4.36c.28.34.43.7.43 1.07.01.36-.12.67-.39.94-.26.26-.58.4-.96.4-.37 0-.73-.13-1.07-.42l-4.37-3.55a1.94 1.94 0 0 1-.15-2.97c.29-.3.61-.47.97-.54zm-75.54 1.5c.89.02 1.77.26 2.64.7a9.18 9.18 0 0 1 2.52 1.84 1 1 0 0 1 .32.88c-.04.3-.23.61-.55.94l-6.42 6.42c.9.7 1.8 1.19 2.67 1.22 1.13.01 2.23-.51 3.3-1.58a9.6 9.6 0 0 0 1.1-1.37c.38-.57.66-1.18.84-1.82.13-.47.32-.8.58-1 .24-.22.5-.32.77-.3.29 0 .55.09.8.27.22.17.39.42.49.75.11.31.12.68.02 1.1a8.11 8.11 0 0 1-1.03 2.43c-.5.79-1.03 1.46-1.58 2.01a9.32 9.32 0 0 1-3.73 2.4c-1.3.41-2.59.45-3.87.1a8.21 8.21 0 0 1-3.57-2.2 8.3 8.3 0 0 1-2.19-3.5 7.04 7.04 0 0 1-.04-3.77c.33-1.27 1-2.41 2.01-3.43a7.29 7.29 0 0 1 2.36-1.62c.84-.36 1.7-.52 2.56-.47zm-42.74.05a6.4 6.4 0 0 1 1.78.39 9.34 9.34 0 0 1 3.46 2.3 9.67 9.67 0 0 1 2.34 3.5c.42 1.2.52 2.36.28 3.48a6.16 6.16 0 0 1-1.76 3.08 5.8 5.8 0 0 1-2.93 1.65c-.82.16-1.57.07-2.3-.15l4.33 4.32c.44.45.66.9.64 1.37 0 .46-.21.9-.64 1.33-.43.43-.87.64-1.33.64-.45 0-.9-.22-1.34-.66l-11.96-11.96c-.45-.44-.67-.9-.67-1.35 0-.46.21-.9.62-1.3.43-.43.87-.65 1.33-.65.46 0 .9.22 1.35.67l.55.55a4.44 4.44 0 0 1-.21-2.35 5.85 5.85 0 0 1 1.67-3 6.1 6.1 0 0 1 4.8-1.86zm86.22 2.21c-1.05-.08-2 .29-2.82 1.12-.56.55-.9 1.16-1.05 1.82a3.7 3.7 0 0 0 .15 2.03c.26.68.71 1.35 1.37 2.01.98.98 2 1.52 3.06 1.6 1.06.09 2-.28 2.82-1.1.56-.56.91-1.17 1.05-1.83a3.5 3.5 0 0 0-.17-2 5.63 5.63 0 0 0-1.37-2.06 4.8 4.8 0 0 0-3.04-1.59zm-44.76.56c-.6.11-1.17.44-1.71.99a3.8 3.8 0 0 0-1.11 1.96c-.15.69-.07 1.4.21 2.14.17.44.57.86.9 1.29l5.12-5.12a5.65 5.65 0 0 0-1.57-1.09 2.95 2.95 0 0 0-1.84-.17zm72.43.07c.36-.1.71-.09 1.07.04.34.11.65.33.92.66l3.55 4.37c.29.34.43.7.43 1.07.01.35-.11.67-.38.94a1.4 1.4 0 0 1-.97.4c-.37 0-.72-.14-1.07-.42l-4.36-3.56a1.94 1.94 0 0 1-.15-2.97c.28-.28.6-.46.96-.53zm-114.62.74a3.4 3.4 0 0 0-2.78 1.06 3.43 3.43 0 0 0-.81 3.85c.29.72.8 1.45 1.56 2.21 1.13 1.13 2.23 1.74 3.3 1.84a3.4 3.4 0 0 0 2.78-1.07 3.42 3.42 0 0 0 .8-3.83 6.63 6.63 0 0 0-1.57-2.25c-1.14-1.14-2.23-1.74-3.28-1.81zm-41.85 1.62c.42-.01.78.14 1.1.45.3.3.44.66.44 1.1 0 .4-.15.74-.45 1.04l-4.55 4.56a1.6 1.6 0 0 1-1.1.49 1.54 1.54 0 0 1-1.07-.47 1.48 1.48 0 0 1-.47-1.07c.02-.41.18-.78.5-1.1l4.55-4.55c.3-.3.65-.45 1.05-.45zm73 10.02a3.4 3.4 0 0 0-2.78 1.07 3.44 3.44 0 0 0-.81 3.85c.28.72.8 1.45 1.56 2.2a7.32 7.32 0 0 0 1.8 1.36h3.4c.3-.17.6-.31.87-.58a3.44 3.44 0 0 0 .8-3.83 6.64 6.64 0 0 0-1.57-2.25c-1.14-1.14-2.23-1.75-3.27-1.82zm83.48 1.55a3.32 3.32 0 0 0-2.62 1.05 3.8 3.8 0 0 0-1.11 1.96c-.15.69-.07 1.4.21 2.14.18.46.48.9.83 1.36l5.22-5.23a5.37 5.37 0 0 0-1.6-1.05c-.31-.13-.62-.2-.93-.23zm-36.6.62-.73.72a21.7 21.7 0 0 0-1.99 2.25 3.05 3.05 0 0 0-.68 1.58c-.01.42.16.8.53 1.18.34.33.73.5 1.14.58h.82c.52-.1 1.02-.35 1.51-.84a3.32 3.32 0 0 0 .88-3.36 3.8 3.8 0 0 0-1-1.64zm-97.97 5.66c-.58-.1-1.15.13-1.72.65h3.04a3.28 3.28 0 0 0-1.32-.65z" font-family="Nunito" font-size="30.26" font-weight="700" style="line-height:1;-inkscape-font-specification:'Nunito Bold'" transform="translate(-1587.2 -223.01)"/>
  </g>
</svg>
