<svg xmlns="http://www.w3.org/2000/svg" xml:space="preserve" viewBox="0 0 153.937 191.428">
  <g transform="translate(2442.304 -309.83)">
    <g paint-order="markers fill stroke">
      <path fill="#ce1126" d="m-2312.594 364.382 24.227-6.695-1.057-3.825-24.227 6.694"/>
      <path fill="#003893" d="m-2313.651 360.556 24.227-6.694-1.057-3.826-24.227 6.695"/>
      <path fill="#fcd116" d="m-2314.708 356.731 24.227-6.695-2.114-7.65-24.228 6.694"/>
      <path fill="#ce1126" stroke="#000" stroke-linecap="round" stroke-linejoin="round" stroke-width="2.373" d="m-2306.265 387.288-10.818-39.151"/>
    </g>
    <path fill="#ba907e" d="M284.229 119.506a4.93 4.93 0 0 0-4.973 4.887l-.168 19.369a4.93 4.93 0 0 0 4.887 4.972 4.93 4.93 0 0 0 4.972-4.886l.168-19.37a4.93 4.93 0 0 0-4.886-4.972zm-.212 24.299.17-19.369" color="#000" paint-order="stroke fill markers" style="-inkscape-stroke:none" transform="matrix(.64027 1.42001 1.42001 -.64027 -2694.29 74.679)"/>
    <path fill="#ba907e" d="M284.229 119.506a4.93 4.93 0 0 0-4.973 4.887l-.168 19.369a4.93 4.93 0 0 0 4.887 4.972 4.93 4.93 0 0 0 4.972-4.886l.168-19.37a4.93 4.93 0 0 0-4.886-4.972zm-.212 24.299.17-19.369" color="#000" paint-order="stroke fill markers" style="-inkscape-stroke:none" transform="scale(-1.55768 1.55768) rotate(59.503 784.671 1291.82)"/>
    <path stroke="#070602" stroke-linecap="round" stroke-width="8" d="M-2385.089 313.83a6.856 6.856 0 0 0-5.791 3.191 6.836 6.836 0 0 0-3.612-1.036 6.856 6.856 0 0 0-6.635 5.136 6.856 6.856 0 0 0-6.075 6.634c-2.95-1.277-5.934-1.619-7.37-1.684h0a23.559 23.559 0 0 0-2.548.121c-12.107 1.265-21.612 12.26-20.274 24.5.636 5.82 3.74 10.974 8.17 14.35a14.08 14.08 0 0 0-2.642 8.136 13.8 13.8 0 0 0 .564 3.88c-4.355 2.639-7.002 7.252-7.002 12.214.013 3.728 1.521 7.306 4.208 9.985a14.07 14.07 0 0 0-2.598 8.122c.012 3.97 1.72 7.762 4.721 10.48a15.546 15.546 0 0 0-1.217 6.017c.01 8.06 6.214 14.863 14.5 15.894a15.5 15.5 0 0 0 .847 4.853c-18.035 12.594-16.843 31.283 3.581 43.081 21.693 12.518 56.863 12.518 78.556 0 21.693-12.518 21.693-32.824 0-45.355a55.937 55.937 0 0 0-2.835-1.525c4.382-2.83 7.213-7.574 7.374-12.856 4.304-3.007 6.86-7.817 6.876-12.944a15.673 15.673 0 0 0-3.328-9.56c2.901-2.965 4.522-6.884 4.534-10.96-.05-3.924-1.59-7.692-4.326-10.594 1.974-9.028.01-19.36-5.522-29.055a12.487 12.487 0 0 0 1.336-5.56 12.459 12.459 0 0 0-2.577-7.537c1.063-1.352 1.818-2.696 2.262-4.006.923-2.72.717-5.335.016-7.665-1.037-3.45-3.161-6.188-4.196-7.381a23.447 23.447 0 0 0-1.843-1.763c-4.339-3.706-9.834-5.525-15.267-5.444-5.835.088-11.58 2.396-15.763 6.886a6.848 6.848 0 0 0-1.074-.443c.017-.157.024-.314.034-.472a6.856 6.856 0 0 0-10.46-5.83 6.836 6.836 0 0 0-4.623-1.81z" paint-order="stroke fill markers"/>
    <path fill="#ba907e" d="M-2394.965 434.682a7.66 7.66 0 0 1 7.749 7.57l.304 26.057a7.66 7.66 0 0 1-7.57 7.746 7.66 7.66 0 0 1-7.748-7.57l-.304-26.054a7.66 7.66 0 0 1 7.569-7.749zm36.706-8.004a7.66 7.66 0 0 1 7.749 7.569l.304 26.058a7.66 7.66 0 0 1-7.57 7.745 7.66 7.66 0 0 1-7.748-7.569l-.304-26.055a7.66 7.66 0 0 1 7.569-7.748z" color="#000" paint-order="stroke fill markers" style="-inkscape-stroke:none"/>
    <path fill="#fffcf7" d="M-2379.332 342.445a14.958 14.431 0 0 1 13.24 7.79 14.958 14.431 0 0 1 4.062-.547 14.958 14.431 0 0 1 13.322 7.932 16.626 16.04 0 0 1 3.117-.287 16.626 16.04 0 0 1 16.626 16.04 16.626 16.04 0 0 1-2.127 7.768 16.626 16.04 0 0 1 7.76 13.558 16.626 16.04 0 0 1-4.534 10.962 16.626 16.04 0 0 1 3.328 9.56 16.626 16.04 0 0 1-6.876 12.943 16.626 16.04 0 0 1-12.043 14.95 16.626 16.04 0 0 1-16.217 12.692 16.626 16.04 0 0 1-9.225-2.717 16.626 16.04 0 0 1-10.894 3.924 16.626 16.04 0 0 1-11.928-4.921 16.626 16.04 0 0 1-10.605 3.714 16.626 16.04 0 0 1-16.612-15.84 16.626 16.04 0 0 1-14.5-15.893 16.626 16.04 0 0 1 1.218-6.018 14.958 14.431 0 0 1-4.721-10.48 14.958 14.431 0 0 1 2.597-8.122 14.958 14.431 0 0 1-4.207-9.984 14.958 14.431 0 0 1 7.002-12.215 14.958 14.431 0 0 1-.564-3.88 14.958 14.431 0 0 1 14.958-14.432 14.958 14.431 0 0 1 1.724.12 14.958 14.431 0 0 1 14.774-12.19 14.958 14.431 0 0 1 8.495 2.586 14.958 14.431 0 0 1 12.83-7.013z"/>
    <g paint-order="stroke fill markers">
      <path fill="#e1c078" d="M-2336.34 322.902c1.036 1.193 3.16 3.93 4.197 7.38.7 2.33.906 4.947-.016 7.666-.742 2.185-2.222 4.464-4.853 6.72 1.949-6.713.108-14.329-5.647-18.987-6.765-5.477-17.182-4.872-22.714 2.121-4.715 5.961-4.145 15.088 2.06 19.847 5.156 3.954 12.998 3.41 16.98-2.014 3.193-4.35 2.678-10.913-1.974-14.11-3.54-2.433-8.848-1.945-11.242 1.953a6.515 6.515 0 0 0-.838 4.581c.294 1.554 1.226 3.025 2.818 3.798.962.466 2.11.567 3.172.263 1.062-.303 2.08-1.137 2.332-2.425.151-.773-.085-1.398-.528-1.987-.22-.295-.54-.597-1.036-.69-.498-.092-1.052.146-1.397.509a.873.873 0 0 0 .033 1.236.873.873 0 0 0 1.026.057c.097.198.177.603.19.539-.12.61-.493.908-1.1 1.082-.607.174-1.408.098-1.93-.155-1.064-.516-1.658-1.445-1.868-2.554a4.851 4.851 0 0 1 .611-3.34c1.818-2.96 5.989-3.34 8.77-1.429 3.773 2.594 4.196 8.038 1.552 11.64-3.364 4.581-10.093 5.046-14.509 1.66-5.387-4.132-5.89-12.153-1.755-17.38 4.897-6.19 14.215-6.729 20.25-1.844 6.994 5.662 7.57 16.276 1.931 23.117-6.426 7.797-18.34 8.408-25.987 2.015-8.6-7.19-9.246-20.404-2.097-28.855 7.953-9.402 22.47-10.084 31.726-2.177.647.552 1.26 1.144 1.843 1.763z"/>
      <path fill="#2c220f" fill-rule="evenodd" stroke="#2c220f" stroke-linecap="round" stroke-width="2" d="M-2335.55 321.17c.117.122.304.329.523.58.302.322.6.649.884.986a.873.873 0 0 1 .108.23c1.181 1.556 2.7 3.941 3.564 6.815.778 2.59 1.021 5.607-.037 8.726-1.058 3.118-3.408 6.297-7.644 9.242a.873.873 0 0 1-.075.033 18.272 18.272 0 0 1-2.254 3.484c-7.068 8.577-20.08 9.243-28.452 2.243-9.371-7.835-10.068-22.146-2.307-31.321 8.6-10.168 24.211-10.898 34.19-2.375.396.339.779.694 1.154 1.056a.873.873 0 0 1 .183.135s.058.057.162.165zm-.79 1.732a23.308 23.308 0 0 0-1.842-1.763c-9.256-7.907-23.773-7.225-31.726 2.177-7.15 8.451-6.503 21.665 2.096 28.855 7.647 6.393 19.561 5.782 25.987-2.015 5.639-6.841 5.063-17.455-1.931-23.117-6.035-4.885-15.353-4.347-20.25 1.844-4.134 5.227-3.631 13.248 1.756 17.38 4.416 3.386 11.144 2.921 14.508-1.66 2.644-3.602 2.221-9.046-1.552-11.64-2.78-1.91-6.952-1.53-8.77 1.429a4.854 4.854 0 0 0-.61 3.34c.21 1.11.803 2.038 1.866 2.554.524.253 1.324.329 1.931.155.608-.174.98-.471 1.1-1.082-.013.064-.092-.34-.19-.54a.873.873 0 0 1-1.026-.056.873.873 0 0 1-.033-1.236c.346-.363.9-.6 1.397-.509.497.093.816.395 1.037.69.442.589.678 1.214.527 1.987-.251 1.288-1.27 2.122-2.332 2.425a4.496 4.496 0 0 1-3.171-.263c-1.593-.773-2.525-2.245-2.819-3.798a6.516 6.516 0 0 1 .838-4.581c2.395-3.898 7.702-4.386 11.243-1.953 4.651 3.197 5.166 9.76 1.973 14.11-3.982 5.423-11.823 5.968-16.98 2.014-6.205-4.76-6.775-13.886-2.06-19.847 5.532-6.993 15.95-7.598 22.715-2.121 5.754 4.658 7.595 12.274 5.647 18.988 2.63-2.257 4.11-4.536 4.852-6.721.923-2.72.717-5.335.016-7.665-1.037-3.45-3.16-6.188-4.196-7.381z" color="#000"/>
    </g>
    <ellipse cx="1654.83" cy="1737.065" fill="#ffc4b9" rx="48.369" ry="36.419" transform="scale(-1 1) rotate(-37.618)"/>
    <circle cx="2344.307" cy="349.491" r="12.461" fill="#fff" transform="scale(-1 1)"/>
    <circle cx="2344.044" cy="348.674" r="11.09" transform="scale(-1 1)"/>
    <circle cx="2386.272" cy="355.112" r="12.461" fill="#fff" transform="scale(-1 1)"/>
    <circle cx="2386.616" cy="354.491" r="11.286" transform="scale(-1 1)"/>
    <path fill="#fffcf7" d="M-2385.336 314.026a6.856 6.856 0 0 1 4.623 1.81 6.856 6.856 0 0 1 3.604-1.026 6.856 6.856 0 0 1 6.856 6.856 6.856 6.856 0 0 1-.034.472 6.856 6.856 0 0 1 4.931 6.58 6.856 6.856 0 0 1-6.856 6.855 6.856 6.856 0 0 1-1.67-.22 6.856 6.856 0 0 1-5.774 3.16 6.856 6.856 0 0 1-1.05-.087 6.856 6.856 0 0 1-5.806 3.22 6.856 6.856 0 0 1-2.42-.46 6.856 6.856 0 0 1-4.435 1.635 6.856 6.856 0 0 1-3.871-1.21 6.856 6.856 0 0 1-3.573 1.015 6.856 6.856 0 0 1-6.856-6.856 6.856 6.856 0 0 1 1.267-3.966 6.856 6.856 0 0 1-1.071-3.674 6.856 6.856 0 0 1 6.097-6.812 6.856 6.856 0 0 1 6.635-5.137 6.856 6.856 0 0 1 3.61 1.036 6.856 6.856 0 0 1 5.793-3.19z" paint-order="stroke fill markers"/>
    <path fill="#e1c078" d="M-2414.82 326.267c1.578.071 5.025.417 8.241 2.042 2.172 1.097 4.21 2.749 5.547 5.29 1.073 2.043 1.706 4.687 1.53 8.147-3.525-6.036-10.315-9.947-17.655-8.984-8.63 1.133-15.367 9.102-14.107 17.93 1.074 7.523 8.083 13.396 15.808 12.175 6.417-1.015 11.423-7.074 10.234-13.697-.954-5.31-6.067-9.458-11.588-8.287-4.203.89-7.505 5.075-6.328 9.495a6.516 6.516 0 0 0 2.744 3.763c1.328.857 3.037 1.195 4.694.572a4.496 4.496 0 0 0 2.376-2.117c.511-.98.608-2.292-.152-3.362-.456-.642-1.072-.9-1.804-.986-.366-.042-.805-.02-1.214.277-.41.297-.62.862-.593 1.363a.873.873 0 0 0 .919.827.873.873 0 0 0 .748-.705c.21.066.559.288.52.234.361.508.32.983.028 1.543-.293.56-.898 1.088-1.443 1.292-1.106.416-2.189.207-3.137-.404a4.854 4.854 0 0 1-2.001-2.745c-.893-3.355 1.704-6.641 5.004-7.34 4.48-.95 8.718 2.493 9.508 6.89 1.005 5.595-3.293 10.793-8.79 11.662-6.705 1.06-12.867-4.1-13.808-10.697-1.116-7.815 4.912-14.94 12.61-15.951 8.922-1.171 17.013 5.722 18.09 14.521 1.226 10.03-6.537 19.088-16.438 20.229-11.136 1.282-21.161-7.35-22.364-18.355-1.339-12.241 8.166-23.235 20.273-24.5a23.465 23.465 0 0 1 2.548-.122z" paint-order="stroke fill markers"/>
    <path fill="#2c220f" fill-rule="evenodd" stroke="#2c220f" stroke-linecap="round" stroke-linejoin="round" stroke-width="2" d="M-2415.533 324.502c.17 0 .449.006.782.02.442.003.883.012 1.324.039a.873.873 0 0 1 .241.08c1.942.215 4.717.757 7.395 2.11 2.413 1.219 4.769 3.121 6.3 6.036 1.533 2.916 2.219 6.808 1.437 11.908a.873.873 0 0 1-.028.077c.469 1.288.803 2.637.974 4.033 1.35 11.032-7.13 20.924-17.97 22.173-12.136 1.397-22.991-7.954-24.297-19.9-1.448-13.239 8.775-25.06 21.826-26.423.519-.054 1.04-.087 1.561-.11a.873.873 0 0 1 .224-.039s.081-.003.231-.005zm.713 1.765c-.85-.004-1.701.033-2.547.122-12.107 1.265-21.612 12.259-20.274 24.5 1.203 11.004 11.229 19.637 22.364 18.355 9.902-1.14 17.665-10.2 16.438-20.229-1.076-8.8-9.167-15.692-18.09-14.521-7.698 1.01-13.726 8.136-12.61 15.95.942 6.598 7.103 11.758 13.809 10.698 5.497-.87 9.794-6.067 8.79-11.662-.79-4.397-5.03-7.84-9.508-6.89-3.3.699-5.898 3.985-5.005 7.34a4.854 4.854 0 0 0 2.002 2.744c.948.612 2.03.82 3.136.405.545-.204 1.15-.732 1.443-1.292.292-.56.333-1.035-.027-1.543.038.054-.31-.168-.52-.234a.873.873 0 0 1-.749.705.873.873 0 0 1-.919-.827c-.026-.5.184-1.066.593-1.363.41-.297.848-.32 1.214-.277.732.085 1.348.344 1.804.986.76 1.07.664 2.382.152 3.362a4.496 4.496 0 0 1-2.375 2.117c-1.657.623-3.366.285-4.695-.572a6.516 6.516 0 0 1-2.744-3.763c-1.177-4.42 2.125-8.604 6.328-9.495 5.522-1.171 10.634 2.976 11.588 8.287 1.19 6.623-3.816 12.682-10.234 13.697-7.725 1.221-14.734-4.652-15.808-12.176-1.26-8.827 5.477-16.796 14.107-17.929 7.34-.963 14.13 2.948 17.655 8.984.176-3.46-.456-6.104-1.53-8.147-1.336-2.541-3.374-4.194-5.546-5.29-3.216-1.625-6.663-1.97-8.241-2.042z" color="#000" paint-order="stroke markers fill"/>
    <ellipse cx="2388.626" cy="353.49" fill="#fffcf7" paint-order="stroke fill markers" rx="3.624" ry="3.526" transform="scale(-1 1)"/>
    <ellipse cx="2338.97" cy="345.889" fill="#fffcf7" paint-order="stroke fill markers" rx="3.624" ry="3.526" transform="scale(-1 1)"/>
    <g paint-order="markers fill stroke">
      <path fill="#ce1126" d="m-2365.325 409.225 19.445 15.927 2.515-3.07-19.445-15.927"/>
      <path fill="#003893" d="m-2362.81 406.155 19.445 15.927 2.515-3.07-19.445-15.928"/>
      <path fill="#fcd116" d="m-2360.295 403.084 19.445 15.928 5.03-6.14-19.445-15.928"/>
      <path fill="#ce1126" stroke="#000" stroke-linecap="round" stroke-linejoin="round" stroke-width="2.373" d="m-2380.383 427.61 25.738-31.423"/>
    </g>
    <path fill="#ba907e" d="M284.229 119.506a4.93 4.93 0 0 0-4.973 4.887l-.168 19.369a4.93 4.93 0 0 0 4.887 4.972 4.93 4.93 0 0 0 4.972-4.886l.168-19.37a4.93 4.93 0 0 0-4.886-4.972zm-.212 24.299.17-19.369" color="#000" paint-order="stroke fill markers" style="-inkscape-stroke:none" transform="matrix(-.79052 1.34218 1.34218 .79052 -2348.89 -69.68)"/>
  </g>
</svg>
