<svg xmlns="http://www.w3.org/2000/svg" xmlns:xlink="http://www.w3.org/1999/xlink" xml:space="preserve" id="svg1" version="1.1" viewBox="0 0 638.78 496.95">
  <defs>
    <path id="monitor_outline" fill="#415c7d" d="m-70.36 249.48 110 63.5 6.72-3.87v-71.96l-109.3-63.92-7.42 4.28z"/>
  </defs>
  <defs id="defs1">
    <linearGradient id="linearGradient57">
      <stop id="stop57" offset=".45" stop-color="#212121" stop-opacity="1"/>
      <stop id="stop58" offset=".9" stop-color="#221e46" stop-opacity="0"/>
    </linearGradient>
    <linearGradient id="linearGradient203">
      <stop id="stop202" offset="0" stop-color="#fff" stop-opacity=".82"/>
      <stop id="stop203" offset=".71" stop-color="#fff" stop-opacity="0"/>
    </linearGradient>
    <linearGradient xlink:href="#linearGradient203" id="linearGradient198" x1="2245.94" x2="2245.94" y1="623.92" y2="1000.2" gradientTransform="matrix(2.3261 0 0 .73054 -5176.07 -395.3)" gradientUnits="userSpaceOnUse" spreadMethod="pad"/>
    <linearGradient xlink:href="#linearGradient57" id="linearGradient58" x1="46.62" x2="46.62" y1="41.87" y2="-53" gradientUnits="userSpaceOnUse"/>
  </defs>
  <g id="ram_computer" fill-opacity="1" transform="translate(273.04 53)">
    <g id="outlines" stroke="#000" stroke-dasharray="none" stroke-opacity="1" stroke-width="5">
      <use xlink:href="#monitor_outline"/>
      <path id="path63" fill="#58401f" d="m-15.36 209.27-119.71 69.12v3.46l37.16 21.45v56.44l10.1 5.84 9.32-5.38v-45.69L32.84 378.8v56.44l10.1 5.84 9.32-5.38V390l1.33.77 67.62-39.03v32.47l10.1 5.83 9.32-5.38v-44.14l32.68-18.86v-3.46z" paint-order="stroke markers fill"/>
    </g>
    <path id="path41" fill="#424259" stroke="#060402" stroke-dasharray="none" stroke-opacity="1" stroke-width="5" d="m-72 369.33 30.82 17.8 37.92-21.55v-45.7l-39.08-22.57L-72 314.43z" paint-order="stroke markers fill"/>
    <g id="ram" transform="translate(-2229.92 -749.9)">
      <path id="path39" fill="#2c220f" stroke="#2c220f" stroke-dasharray="none" stroke-linecap="round" stroke-linejoin="round" stroke-opacity="1" stroke-width="7.9" d="M2349.28 909.83c-1.71 0-3.36.65-4.62 1.8a6.86 6.86 0 0 0-10.46 5.84c0 .16.01.32.03.47-.37.12-.73.27-1.07.45a21.88 21.88 0 0 0-15.77-6.9 22.99 22.99 0 0 0-17.1 7.22 21.15 21.15 0 0 0-4.2 7.38c-.7 2.33-.9 4.94.01 7.66a13.5 13.5 0 0 0 2.27 4 12.46 12.46 0 0 0-2.58 7.55c0 1.93.46 3.83 1.34 5.56-5.54 9.7-7.5 20.02-5.53 29.05a15.74 15.74 0 0 0-4.32 10.6 15.7 15.7 0 0 0 4.53 10.96 15.67 15.67 0 0 0-3.33 9.55 15.87 15.87 0 0 0 6.88 12.95c.21 6.98 5.08 13.03 12.04 14.95a16.04 16.04 0 0 0 6.84 9.74l-.09 7.45a7.66 7.66 0 0 0 15.32.18l.07-5.78c1.16-.42 2.27-.96 3.3-1.62a16.99 16.99 0 0 0 10.9 3.93 17.1 17.1 0 0 0 7.27-1.78l-.15 13.07a7.66 7.66 0 0 0 15.31.18l.15-12.69c9.08-.03 16.44-7.08 16.56-15.83 8.29-1.03 14.5-7.83 14.5-15.9 0-2.06-.41-4.1-1.22-6.01 3-2.72 4.71-6.5 4.73-10.48 0-2.9-.91-5.73-2.6-8.12a14.17 14.17 0 0 0 4.2-9.99 14.3 14.3 0 0 0-7-12.21c.37-1.26.56-2.57.57-3.88-.01-2.9-.93-5.74-2.64-8.14a21.02 21.02 0 0 0 8.17-14.35c1.33-12.24-8.17-23.23-20.28-24.5-.84-.09-1.7-.12-2.55-.12h0c-1.43.07-4.42.4-7.37 1.69a6.86 6.86 0 0 0-6.07-6.64 6.86 6.86 0 0 0-10.25-4.1 6.86 6.86 0 0 0-5.79-3.19z" paint-order="stroke markers fill"/>
      <ellipse id="ellipse39" cx="2337.97" cy="1069.41" fill="#232323" stroke="none" stroke-dasharray="none" stroke-linecap="round" stroke-opacity="1" stroke-width="5.02" paint-order="stroke fill markers" rx="61.78" ry="10.71"/>
      <path id="path72" fill="#ba907e" stroke-linecap="round" stroke-width="1.56" d="M2359.16 1030.68a7.66 7.66 0 0 0-7.75 7.57l-.3 26.06a7.66 7.66 0 0 0 7.56 7.75 7.66 7.66 0 0 0 7.75-7.57l.3-26.06a7.66 7.66 0 0 0-7.56-7.75z" color="#000" paint-order="stroke fill markers" style="-inkscape-stroke:none"/>
      <path id="path73" fill="#ba907e" stroke-linecap="round" stroke-width="1.56" d="M2322.45 1022.68a7.66 7.66 0 0 0-7.75 7.57l-.3 26.05a7.66 7.66 0 0 0 7.57 7.75 7.66 7.66 0 0 0 7.75-7.57l.3-26.05a7.66 7.66 0 0 0-7.57-7.75z" color="#000" paint-order="stroke fill markers" style="-inkscape-stroke:none"/>
      <path id="path135" fill="#fffcf7" stroke-width=".41" d="M2343.52 938.45a14.96 14.43 0 0 0-13.24 7.78 14.96 14.43 0 0 0-4.06-.54 14.96 14.43 0 0 0-13.32 7.93 16.63 16.04 0 0 0-3.12-.29 16.63 16.04 0 0 0-16.62 16.04 16.63 16.04 0 0 0 2.12 7.77 16.63 16.04 0 0 0-7.76 13.56 16.63 16.04 0 0 0 4.54 10.96 16.63 16.04 0 0 0-3.33 9.56 16.63 16.04 0 0 0 6.88 12.94 16.63 16.04 0 0 0 12.04 14.95 16.63 16.04 0 0 0 16.22 12.7 16.63 16.04 0 0 0 9.22-2.72 16.63 16.04 0 0 0 10.9 3.92 16.63 16.04 0 0 0 11.92-4.92 16.63 16.04 0 0 0 10.6 3.72 16.63 16.04 0 0 0 16.62-15.84 16.63 16.04 0 0 0 14.5-15.9 16.63 16.04 0 0 0-1.22-6.01 14.96 14.43 0 0 0 4.72-10.48 14.96 14.43 0 0 0-2.6-8.13 14.96 14.43 0 0 0 4.21-9.98 14.96 14.43 0 0 0-7-12.22 14.96 14.43 0 0 0 .57-3.88 14.96 14.43 0 0 0-14.96-14.43 14.96 14.43 0 0 0-1.73.12 14.96 14.43 0 0 0-14.77-12.19 14.96 14.43 0 0 0-8.5 2.59 14.96 14.43 0 0 0-12.83-7.01z"/>
    </g>
    <g id="desk" stroke="none" stroke-opacity="1" paint-order="stroke markers fill">
      <path id="path40" fill="#58401f" stroke-dasharray="none" stroke-width="5" d="m121.21 384.2 10.1 5.84 9.32-5.38v-77.63l-9.31-6.29-10.1 5.84z"/>
      <path id="path38" fill="#58401f" stroke-dasharray="none" stroke-width="5" d="m32.84 435.23 10.1 5.84 9.32-5.38v-77.63l-9.32-6.3-10.1 5.84z"/>
      <path id="path37" fill="#58401f" stroke-dasharray="none" stroke-width="5" d="m-97.91 359.74 10.1 5.84 9.32-5.38v-77.63l-9.32-6.3-10.1 5.84z"/>
      <path id="path15" fill="#835f2e" stroke-dasharray="none" stroke-width="5" d="m-135.07 278.39 119.71-69.12L173.31 318.2v3.46L53.6 390.77l-188.66-108.92Z"/>
      <path id="path58" fill="#93692e" stroke-width=".26" d="M-135.07 278.39 53.59 387.32l119.72-69.12-188.67-108.93Z"/>
    </g>
    <path id="path35" fill="#ba907e" stroke-linecap="round" stroke-width="1.56" d="M69.92 231a7.68 7.68 0 0 0-10.48-2.88l-26.23 14.9a7.68 7.68 0 0 0-2.88 10.48 7.68 7.68 0 0 0 10.47 2.88l26.23-14.91A7.68 7.68 0 0 0 69.92 231z" color="#000" paint-order="stroke fill markers" style="-inkscape-stroke:none"/>
    <path id="path36" fill="#214e7e" stroke-width=".51" d="m-22.35 254.14 32.61-18.83 74.52 43.02v4.05l-32.62 18.83-74.51-43.02z"/>
    <g id="monitor" stroke-width=".26">
      <path id="path14" fill="#2a3c51" d="m-52.44 282.9 16.92-9.76 38.64 22.3v3.47l-16.92 9.76-38.64-22.3z"/>
      <use xlink:href="#monitor_outline" id="path11"/>
      <path id="path13" fill="#2a3c51" d="M-70.36 177.51v71.97l110 63.5v-71.96z"/>
      <path id="path12" fill="#415c7d" d="m-32.57 284.47 13.42 7.75 3.8-2.19v-24.44l-12.55-7.24-4.67 2.7z"/>
    </g>
    <g id="ram_head" transform="translate(-2229.92 -749.9)">
      <g id="g137" stroke-dasharray="none" stroke-linecap="round" stroke-opacity="1" paint-order="stroke fill markers" transform="translate(484.67 861.86)">
        <path id="path136" fill="#e1c078" stroke="none" stroke-width="15.42" d="M1815.87 57.04a21.14 21.14 0 0 0-4.2 7.39c-.7 2.33-.9 4.94.02 7.66.74 2.19 2.22 4.46 4.85 6.72-1.95-6.71-.1-14.33 5.65-18.99 6.76-5.47 17.18-4.87 22.7 2.12 4.72 5.97 4.15 15.1-2.05 19.85-5.16 3.96-13 3.41-16.98-2.01-3.2-4.35-2.68-10.92 1.97-14.11 3.54-2.44 8.85-1.95 11.25 1.95a6.52 6.52 0 0 1 .83 4.58 5.22 5.22 0 0 1-2.81 3.8 4.5 4.5 0 0 1-3.18.26 3.21 3.21 0 0 1-2.33-2.42 2.4 2.4 0 0 1 .53-1.99c.22-.3.54-.6 1.04-.69.5-.1 1.05.15 1.4.51a.87.87 0 0 1-.04 1.24.87.87 0 0 1-1.03.05c-.1.2-.17.6-.19.54.12.61.5.91 1.1 1.08.61.18 1.41.1 1.93-.15a3.4 3.4 0 0 0 1.87-2.55 4.85 4.85 0 0 0-.61-3.35c-1.82-2.95-5.99-3.33-8.77-1.42-3.77 2.59-4.2 8.03-1.55 11.64 3.36 4.58 10.1 5.04 14.5 1.65 5.4-4.13 5.9-12.15 1.76-17.37-4.9-6.2-14.21-6.73-20.25-1.85-7 5.66-7.57 16.28-1.93 23.12 6.43 7.8 18.34 8.4 25.99 2.01 8.6-7.19 9.24-20.4 2.1-28.85-7.96-9.4-22.48-10.08-31.73-2.18-.65.55-1.26 1.15-1.84 1.76z"/>
        <path id="path137" fill="#2c220f" fill-rule="evenodd" stroke="#2c220f" stroke-width="2" d="m1815.08 55.31-.53.58c-.3.32-.6.65-.88.99a.87.87 0 0 0-.1.23 22.05 22.05 0 0 0-3.57 6.81c-.78 2.6-1.02 5.61.03 8.73 1.06 3.12 3.41 6.3 7.65 9.24a.87.87 0 0 0 .07.03 18.1 18.1 0 0 0 2.26 3.49c7.07 8.58 20.08 9.24 28.45 2.24 9.37-7.83 10.07-22.14 2.3-31.32-8.6-10.17-24.2-10.9-34.18-2.37-.4.33-.78.69-1.16 1.05a.87.87 0 0 0-.18.14l-.16.16zm.79 1.73a23.3 23.3 0 0 1 1.84-1.76c9.25-7.9 23.77-7.22 31.72 2.18 7.15 8.45 6.5 21.66-2.1 28.85-7.64 6.4-19.55 5.79-25.98-2.01-5.64-6.84-5.06-17.46 1.93-23.12 6.04-4.88 15.36-4.35 20.25 1.85 4.14 5.22 3.63 13.24-1.75 17.37-4.42 3.4-11.15 2.93-14.51-1.65-2.65-3.6-2.22-9.05 1.55-11.64 2.78-1.91 6.95-1.53 8.77 1.42.6.98.82 2.24.61 3.35a3.4 3.4 0 0 1-1.87 2.55c-.52.25-1.32.33-1.93.15-.6-.17-.98-.47-1.1-1.08.02.07.1-.34.2-.54a.87.87 0 0 0 1.02-.05.87.87 0 0 0 .03-1.24 1.6 1.6 0 0 0-1.4-.5c-.5.08-.81.39-1.03.68a2.39 2.39 0 0 0-.53 1.99 3.21 3.21 0 0 0 2.33 2.42c1.07.3 2.21.2 3.17-.26a5.22 5.22 0 0 0 2.82-3.8c.3-1.55 0-3.21-.83-4.58-2.4-3.9-7.7-4.39-11.25-1.95-4.65 3.2-5.16 9.76-1.97 14.1 3.98 5.43 11.82 5.98 16.98 2.02 6.2-4.76 6.77-13.88 2.06-19.85-5.53-6.99-15.95-7.6-22.72-2.12-5.75 4.66-7.6 12.28-5.64 19-2.63-2.27-4.11-4.54-4.85-6.73a12.36 12.36 0 0 1-.02-7.66 21.14 21.14 0 0 1 4.2-7.39z" color="#000"/>
      </g>
      <ellipse id="ellipse137" cx="1262.67" cy="2187.3" fill="#ffc4b9" stroke-width=".41" rx="48.37" ry="36.42" transform="rotate(-37.62)"/>
      <circle id="circle137" cx="2308.5" cy="945.49" r="12.46" fill="#fff" stroke-width=".4"/>
      <circle id="circle138" cx="2308.24" cy="944.67" r="11.09" fill="#000" stroke-width=".36"/>
      <circle id="circle139" cx="2350.46" cy="951.11" r="12.46" fill="#fff" stroke-width=".4"/>
      <circle id="circle140" cx="2350.81" cy="950.49" r="11.29" fill="#000" stroke-width=".37"/>
      <path id="path140" fill="#fffcf7" stroke="none" stroke-dasharray="none" stroke-linecap="round" stroke-opacity="1" stroke-width="13.64" d="M2349.53 910.03a6.86 6.86 0 0 0-4.63 1.8 6.86 6.86 0 0 0-3.6-1.02 6.86 6.86 0 0 0-6.86 6.86 6.86 6.86 0 0 0 .04.47 6.86 6.86 0 0 0-4.93 6.58 6.86 6.86 0 0 0 6.85 6.85 6.86 6.86 0 0 0 1.67-.22 6.86 6.86 0 0 0 5.78 3.16 6.86 6.86 0 0 0 1.05-.08 6.86 6.86 0 0 0 5.8 3.22 6.86 6.86 0 0 0 2.42-.46 6.86 6.86 0 0 0 4.44 1.63 6.86 6.86 0 0 0 3.87-1.2 6.86 6.86 0 0 0 3.57 1 6.86 6.86 0 0 0 6.86-6.85 6.86 6.86 0 0 0-1.27-3.97 6.86 6.86 0 0 0 1.07-3.67 6.86 6.86 0 0 0-6.1-6.81 6.86 6.86 0 0 0-6.63-5.14 6.86 6.86 0 0 0-3.61 1.04 6.86 6.86 0 0 0-5.8-3.2z" paint-order="stroke fill markers"/>
      <g id="g142" stroke-dasharray="none" stroke-linecap="round" stroke-opacity="1" transform="translate(487.43 862.74)">
        <path id="path141" fill="#e1c078" stroke="none" stroke-width="15.42" d="M1891.58 59.53c-1.58.07-5.03.42-8.24 2.04a12.36 12.36 0 0 0-5.55 5.3c-1.07 2.03-1.7 4.68-1.53 8.14 3.53-6.04 10.32-9.95 17.66-8.99 8.63 1.14 15.36 9.1 14.1 17.93-1.07 7.53-8.08 13.4-15.8 12.18-6.42-1.02-11.43-7.08-10.24-13.7.96-5.3 6.07-9.46 11.59-8.28 4.2.89 7.5 5.07 6.33 9.49a6.52 6.52 0 0 1-2.75 3.76 5.22 5.22 0 0 1-4.69.58 4.5 4.5 0 0 1-2.38-2.12c-.5-.98-.6-2.3.16-3.36.45-.65 1.07-.9 1.8-.99.37-.04.8-.02 1.21.28.41.3.62.86.6 1.36a.87.87 0 0 1-.92.83.87.87 0 0 1-.75-.7c-.21.06-.56.28-.52.23-.36.5-.32.98-.03 1.54.3.56.9 1.09 1.44 1.3 1.11.4 2.2.2 3.14-.41a4.85 4.85 0 0 0 2-2.75c.9-3.35-1.7-6.64-5-7.34-4.48-.95-8.72 2.5-9.5 6.9-1.01 5.59 3.28 10.79 8.78 11.65 6.7 1.06 12.87-4.1 13.8-10.7 1.13-7.8-4.9-14.93-12.6-15.94-8.92-1.17-17.01 5.72-18.1 14.52-1.22 10.03 6.55 19.09 16.45 20.23 11.13 1.28 21.16-7.35 22.36-18.36 1.34-12.24-8.17-23.23-20.27-24.5-.85-.09-1.7-.12-2.55-.12z" paint-order="stroke fill markers"/>
        <path id="path142" fill="#2c220f" fill-rule="evenodd" stroke="#2c220f" stroke-linejoin="round" stroke-width="2" d="m1892.3 57.76-.79.02c-.44 0-.88.02-1.32.04a.87.87 0 0 0-.24.08c-1.95.22-4.72.76-7.4 2.11a14.15 14.15 0 0 0-6.3 6.04c-1.53 2.91-2.22 6.8-1.44 11.9a.87.87 0 0 0 .03.08c-.47 1.3-.8 2.64-.97 4.04-1.35 11.03 7.13 20.92 17.97 22.17 12.13 1.4 22.99-7.95 24.3-19.9 1.44-13.24-8.78-25.06-21.83-26.42-.52-.06-1.04-.09-1.56-.11a.87.87 0 0 0-.23-.04h-.23zm-.72 1.77c.85 0 1.7.03 2.55.12 12.1 1.27 21.6 12.26 20.27 24.5-1.2 11-11.23 19.64-22.36 18.36-9.9-1.14-17.67-10.2-16.44-20.23 1.08-8.8 9.17-15.7 18.09-14.52 7.7 1 13.72 8.13 12.6 15.95-.93 6.6-7.1 11.75-13.8 10.7-5.5-.87-9.8-6.07-8.79-11.67.8-4.4 5.03-7.84 9.5-6.89 3.3.7 5.9 3.99 5.01 7.34a4.85 4.85 0 0 1-2 2.75 3.4 3.4 0 0 1-3.14.4 2.97 2.97 0 0 1-1.44-1.3c-.29-.55-.33-1.03.03-1.53-.04.05.3-.17.52-.24a.87.87 0 0 0 .75.7.87.87 0 0 0 .92-.82c.02-.5-.19-1.07-.6-1.36-.4-.3-.84-.32-1.21-.28-.73.09-1.35.34-1.8.99a3.21 3.21 0 0 0-.16 3.36 4.5 4.5 0 0 0 2.38 2.12c1.66.62 3.37.28 4.7-.58a6.52 6.52 0 0 0 2.74-3.76c1.17-4.42-2.13-8.6-6.33-9.5-5.52-1.17-10.63 2.98-11.59 8.3-1.19 6.61 3.82 12.67 10.24 13.69 7.72 1.22 14.73-4.65 15.8-12.18 1.26-8.82-5.47-16.8-14.1-17.93-7.34-.96-14.13 2.95-17.66 8.99-.17-3.46.46-6.1 1.53-8.15a12.36 12.36 0 0 1 5.55-5.29 21.14 21.14 0 0 1 8.24-2.04z" color="#000" paint-order="stroke markers fill"/>
      </g>
      <ellipse id="ellipse142" cx="2353.94" cy="947.44" fill="#fffcf7" stroke="none" stroke-dasharray="none" stroke-linecap="round" stroke-opacity="1" stroke-width="15.42" paint-order="stroke fill markers" rx="3.62" ry="3.53"/>
      <ellipse id="ellipse143" cx="2304.18" cy="941.66" fill="#fffcf7" stroke="none" stroke-dasharray="none" stroke-linecap="round" stroke-opacity="1" stroke-width="15.42" paint-order="stroke fill markers" rx="2.45" ry="2.74"/>
    </g>
    <g id="lamp" display="inline">
      <path id="spotlight" fill="url(#linearGradient198)" stroke-width="4.16" d="M-273.04 368.48h638.79L46.35 20.55Z"/>
      <ellipse id="lamp_circle" cx="46.36" cy="46.4" fill="#3a3a3a" stroke="none" stroke-opacity="1" stroke-width=".26" rx="46.36" ry="23.2"/>
      <path id="lamp_post" fill="url(#linearGradient58)" stroke="none" stroke-opacity="1" stroke-width=".18" d="m39.74 37.9 6.88 3.97 6.35-3.66V-48.7L46.62-53l-6.88 3.98z"/>
    </g>
    <path id="path1346" fill="#262626" stroke-width="5" d="M110.17 292.77c2.5 4-1.4 10.97-8.72 15.55s-9.69 1.15-13.3-1.9c-4.29-3.64-2.02-11.39 5.63-15.4 4.94-2.6 13.88-2.27 16.39 1.75z" paint-order="stroke markers fill"/>
    <path id="path1347" fill="#404040" stroke-width="5" d="M110.17 292.77c2.5 4-1.4 10.97-8.72 15.55s-3.9-3.35-7.5-6.4c-4.3-3.63-7.82-6.89-.17-10.9 4.94-2.6 13.88-2.27 16.39 1.75z" paint-order="stroke markers fill"/>
    <path id="path143" fill="#ba907e" stroke-linecap="round" stroke-width="1.56" d="M136.19 264.26a7.68 7.68 0 0 0-10.86.3l-20.74 21.9a7.68 7.68 0 0 0 .3 10.86 7.68 7.68 0 0 0 10.85-.3l20.75-21.9a7.68 7.68 0 0 0-.3-10.86z" color="#000" paint-order="stroke fill markers" style="-inkscape-stroke:none"/>
  </g>
</svg>
